<svg xmlns="http://www.w3.org/2000/svg" xmlns:xlink="http://www.w3.org/1999/xlink" xmlns:lucid="lucid" width="1637" height="682"><g transform="translate(-229 -248)" lucid:page-tab-id="JLuHm1GZTc-."><path d="M0 0h2227v1366.06H0z" fill="#fff"/><path d="M1082.8 330.2a8 8 0 0 1 8-8h460.82a8 8 0 0 1 8 8v244.24a8 8 0 0 1-8 8h-460.8a8 8 0 0 1-8-8z" stroke="#000" stroke-width="2" fill="#7270ff"/><use xlink:href="#a" transform="matrix(1,0,0,1,1087.8052552132358,327.192726979626) translate(113.24443998081802 102.73630339723843)"/><use xlink:href="#b" transform="matrix(1,0,0,1,1087.8052552132358,327.192726979626) translate(108.64998935054149 140.23594902734993)"/><use xlink:href="#c" transform="matrix(1,0,0,1,1087.8052552132358,327.192726979626) translate(178.51540055426113 140.23594902734993)"/><use xlink:href="#d" transform="matrix(1,0,0,1,1087.8052552132358,327.192726979626) translate(263.1128153983817 140.23594902734993)"/><use xlink:href="#e" transform="matrix(1,0,0,1,1087.8052552132358,327.192726979626) translate(139.82528998351117 172.37850242458836)"/><use xlink:href="#f" transform="matrix(1,0,0,1,1087.8052552132358,327.192726979626) translate(169.58691349947267 172.37850242458836)"/><use xlink:href="#g" transform="matrix(1,0,0,1,1087.8052552132358,327.192726979626) translate(215.6430258904231 172.37850242458836)"/><use xlink:href="#h" transform="matrix(1,0,0,1,1087.8052552132358,327.192726979626) translate(260.28546116436536 172.37850242458836)"/><path d="M808.36 637.52a8 8 0 0 1 8-8h460.8a8 8 0 0 1 8 8v242.86a8 8 0 0 1-8 8h-460.8a8 8 0 0 1-8-8z" stroke="#000" stroke-width="2" fill="#a6e4dd"/><use xlink:href="#i" transform="matrix(1,0,0,1,813.3566408935127,634.5207510056241) translate(141.0343559388471 102.17380339723843)"/><use xlink:href="#j" transform="matrix(1,0,0,1,813.3566408935127,634.5207510056241) translate(47.75026723100524 139.67344902734993)"/><use xlink:href="#k" transform="matrix(1,0,0,1,813.3566408935127,634.5207510056241) translate(107.19911020413835 139.67344902734993)"/><use xlink:href="#l" transform="matrix(1,0,0,1,813.3566408935127,634.5207510056241) translate(187.4066855796546 139.67344902734993)"/><use xlink:href="#m" transform="matrix(1,0,0,1,813.3566408935127,634.5207510056241) translate(239.48952673258725 139.67344902734993)"/><use xlink:href="#n" transform="matrix(1,0,0,1,813.3566408935127,634.5207510056241) translate(388.0744321360251 139.67344902734993)"/><use xlink:href="#o" transform="matrix(1,0,0,1,813.3566408935127,634.5207510056241) translate(118.32251699322897 171.81600242458836)"/><use xlink:href="#p" transform="matrix(1,0,0,1,813.3566408935127,634.5207510056241) translate(177.845764025152 171.81600242458836)"/><path d="M541.54 330.2a8 8 0 0 1 8-8h460.82a8 8 0 0 1 8 8v244.24a8 8 0 0 1-8 8H549.54a8 8 0 0 1-8-8z" stroke="#000" stroke-width="2" fill="#7270ff"/><g><use xlink:href="#q" transform="matrix(1,0,0,1,546.5444532622447,327.192726979626) translate(129.92955016445396 87.04880339723843)"/><use xlink:href="#r" transform="matrix(1,0,0,1,546.5444532622447,327.192726979626) translate(168.06163029427964 124.54844902734992)"/><use xlink:href="#s" transform="matrix(1,0,0,1,546.5444532622447,327.192726979626) translate(242.3912850253935 124.54844902734992)"/><use xlink:href="#t" transform="matrix(1,0,0,1,546.5444532622447,327.192726979626) translate(84.95229662595713 156.69100242458836)"/><use xlink:href="#u" transform="matrix(1,0,0,1,546.5444532622447,327.192726979626) translate(123.56800313791719 156.69100242458836)"/><use xlink:href="#v" transform="matrix(1,0,0,1,546.5444532622447,327.192726979626) translate(206.67733680623968 156.69100242458836)"/><use xlink:href="#w" transform="matrix(1,0,0,1,546.5444532622447,327.192726979626) translate(231.97471679480697 156.69100242458836)"/><use xlink:href="#x" transform="matrix(1,0,0,1,546.5444532622447,327.192726979626) translate(309.280533877517 156.69100242458836)"/><use xlink:href="#y" transform="matrix(1,0,0,1,546.5444532622447,327.192726979626) translate(233.5 188.8335558218268)"/></g><path d="M270.3 640.12a8 8 0 0 1 8-8h460.8a8 8 0 0 1 8 8v240.26a8 8 0 0 1-8 8H278.3a8 8 0 0 1-8-8z" stroke="#000" stroke-width="2" fill="#6f9cdc" fill-opacity=".6"/><g><use xlink:href="#z" transform="matrix(1,0,0,1,275.28745848619997,637.1161409736716) translate(142.20621986478807 101.61130339723843)"/><use xlink:href="#A" transform="matrix(1,0,0,1,275.28745848619997,637.1161409736716) translate(21.671644625143983 139.11094902734993)"/><use xlink:href="#B" transform="matrix(1,0,0,1,275.28745848619997,637.1161409736716) translate(170.2565500285818 139.11094902734993)"/><use xlink:href="#C" transform="matrix(1,0,0,1,275.28745848619997,637.1161409736716) translate(208.87225654054185 139.11094902734993)"/><use xlink:href="#D" transform="matrix(1,0,0,1,275.28745848619997,637.1161409736716) translate(305.44872484983694 139.11094902734993)"/><use xlink:href="#E" transform="matrix(1,0,0,1,275.28745848619997,637.1161409736716) translate(400.68592010091373 139.11094902734993)"/><use xlink:href="#F" transform="matrix(1,0,0,1,275.28745848619997,637.1161409736716) translate(91.57425785825856 171.25350242458836)"/><use xlink:href="#G" transform="matrix(1,0,0,1,275.28745848619997,637.1161409736716) translate(192.68937375373775 171.25350242458836)"/><use xlink:href="#H" transform="matrix(1,0,0,1,275.28745848619997,637.1161409736716) translate(213.4481061561209 171.25350242458836)"/><use xlink:href="#I" transform="matrix(1,0,0,1,275.28745848619997,637.1161409736716) translate(243.20972967208243 171.25350242458836)"/><use xlink:href="#J" transform="matrix(1,0,0,1,275.28745848619997,637.1161409736716) translate(302.65857264521554 171.25350242458836)"/></g><path d="M1346.43 640.12a8 8 0 0 1 8-8h460.8a8 8 0 0 1 8 8v240.26a8 8 0 0 1-8 8h-460.8a8 8 0 0 1-8-8z" stroke="#000" stroke-width="2" fill="#6f9cdc" fill-opacity=".6"/><g><use xlink:href="#K" transform="matrix(1,0,0,1,1351.4258233008254,637.1161409736715) translate(137.6861732933014 117.04880339723843)"/><use xlink:href="#L" transform="matrix(1,0,0,1,1351.4258233008254,637.1161409736715) translate(113.85827346583474 154.54844902734993)"/><use xlink:href="#B" transform="matrix(1,0,0,1,1351.4258233008254,637.1161409736715) translate(164.45303344296929 154.54844902734993)"/><use xlink:href="#M" transform="matrix(1,0,0,1,1351.4258233008254,637.1161409736715) translate(203.06873995492936 154.54844902734993)"/><use xlink:href="#N" transform="matrix(1,0,0,1,1351.4258233008254,637.1161409736715) translate(280.37455703763936 154.54844902734993)"/></g><defs><path fill="#fff" d="M121-226c-27-7-43 5-38 36h38v33H83V0H34v-157H6v-33h28c-9-59 32-81 87-68v32" id="O"/><path fill="#fff" d="M135-150c-39-12-60 13-60 57V0H25l-1-190h47c2 13-1 29 3 40 6-28 27-53 61-41v41" id="P"/><path fill="#fff" d="M133-34C117-15 103 5 69 4 32 3 11-16 11-54c-1-60 55-63 116-61 1-26-3-47-28-47-18 1-26 9-28 27l-52-2c7-38 36-58 82-57s74 22 75 68l1 82c-1 14 12 18 25 15v27c-30 8-71 5-69-32zm-48 3c29 0 43-24 42-57-32 0-66-3-65 30 0 17 8 27 23 27" id="Q"/><path fill="#fff" d="M220-157c-53 9-28 100-34 157h-49v-107c1-27-5-49-29-50C55-147 81-57 75 0H25l-1-190h47c2 12-1 28 3 38 10-53 101-56 108 0 13-22 24-43 59-42 82 1 51 116 57 194h-49v-107c-1-25-5-48-29-50" id="R"/><path fill="#fff" d="M14-72v-43h91v43H14" id="S"/><path fill="#fff" d="M88-194c31-1 46 15 58 34l-1-101h50l1 261h-48c-2-10 0-23-3-31C134-8 116 4 84 4 32 4 16-41 15-95c0-56 19-97 73-99zm17 164c33 0 40-30 41-66 1-37-9-64-41-64s-38 30-39 65c0 43 13 65 39 65" id="T"/><path fill="#fff" d="M115-3C79 11 28 4 28-45v-112H4v-33h27l15-45h31v45h36v33H77v99c-1 23 16 31 38 25v30" id="U"/><path fill="#fff" d="M137-138c1-29-70-34-71-4 15 46 118 7 119 86 1 83-164 76-172 9l43-7c4 19 20 25 44 25 33 8 57-30 24-41C81-84 22-81 20-136c-2-80 154-74 161-7" id="V"/><path fill="#fff" d="M185-48c-13 30-37 53-82 52C43 2 14-33 14-96s30-98 90-98c62 0 83 45 84 108H66c0 31 8 55 39 56 18 0 30-7 34-22zm-45-69c5-46-57-63-70-21-2 6-4 13-4 21h74" id="W"/><g id="a"><use transform="matrix(0.11160608818485564,0,0,0.11160608818485564,0,0)" xlink:href="#O"/><use transform="matrix(0.11160608818485564,0,0,0.11160608818485564,13.28112449399782,0)" xlink:href="#P"/><use transform="matrix(0.11160608818485564,0,0,0.11160608818485564,28.90597683987761,0)" xlink:href="#Q"/><use transform="matrix(0.11160608818485564,0,0,0.11160608818485564,51.22719447684874,0)" xlink:href="#R"/><use transform="matrix(0.11160608818485564,0,0,0.11160608818485564,86.94114269600254,0)" xlink:href="#S"/><use transform="matrix(0.11160608818485564,0,0,0.11160608818485564,100.22226719000037,0)" xlink:href="#T"/><use transform="matrix(0.11160608818485564,0,0,0.11160608818485564,124.66400050248377,0)" xlink:href="#Q"/><use transform="matrix(0.11160608818485564,0,0,0.11160608818485564,146.9852181394549,0)" xlink:href="#U"/><use transform="matrix(0.11160608818485564,0,0,0.11160608818485564,160.26634263345272,0)" xlink:href="#Q"/><use transform="matrix(0.11160608818485564,0,0,0.11160608818485564,182.58756027042386,0)" xlink:href="#V"/><use transform="matrix(0.11160608818485564,0,0,0.11160608818485564,204.908777907395,0)" xlink:href="#W"/><use transform="matrix(0.11160608818485564,0,0,0.11160608818485564,227.22999554436615,0)" xlink:href="#U"/></g><path fill="#fff" d="M115-194c53 0 69 39 70 98 0 66-23 100-70 100C84 3 66-7 56-30L54 0H23l1-261h32v101c10-23 28-34 59-34zm-8 174c40 0 45-34 45-75 0-40-5-75-45-74-42 0-51 32-51 76 0 43 10 73 51 73" id="X"/><path fill="#fff" d="M141-36C126-15 110 5 73 4 37 3 15-17 15-53c-1-64 63-63 125-63 3-35-9-54-41-54-24 1-41 7-42 31l-33-3c5-37 33-52 76-52 45 0 72 20 72 64v82c-1 20 7 32 28 27v20c-31 9-61-2-59-35zM48-53c0 20 12 33 32 33 41-3 63-29 60-74-43 2-92-5-92 41" id="Y"/><path fill="#fff" d="M135-143c-3-34-86-38-87 0 15 53 115 12 119 90S17 21 10-45l28-5c4 36 97 45 98 0-10-56-113-15-118-90-4-57 82-63 122-42 12 7 21 19 24 35" id="Z"/><path fill="#fff" d="M24-231v-30h32v30H24zM24 0v-190h32V0H24" id="aa"/><path fill="#fff" d="M96-169c-40 0-48 33-48 73s9 75 48 75c24 0 41-14 43-38l32 2c-6 37-31 61-74 61-59 0-76-41-82-99-10-93 101-131 147-64 4 7 5 14 7 22l-32 3c-4-21-16-35-41-35" id="ab"/><g id="b"><use transform="matrix(0.07440405878990376,0,0,0.07440405878990376,0,0)" xlink:href="#X"/><use transform="matrix(0.07440405878990376,0,0,0.07440405878990376,14.880811757980753,0)" xlink:href="#Y"/><use transform="matrix(0.07440405878990376,0,0,0.07440405878990376,29.761623515961507,0)" xlink:href="#Z"/><use transform="matrix(0.07440405878990376,0,0,0.07440405878990376,43.15435409814418,0)" xlink:href="#aa"/><use transform="matrix(0.07440405878990376,0,0,0.07440405878990376,49.032274742546576,0)" xlink:href="#ab"/></g><path fill="#fff" d="M210-169c-67 3-38 105-44 169h-31v-121c0-29-5-50-35-48C34-165 62-65 56 0H25l-1-190h30c1 10-1 24 2 32 10-44 99-50 107 0 11-21 27-35 58-36 85-2 47 119 55 194h-31v-121c0-29-5-49-35-48" id="ac"/><path fill="#fff" d="M115-194c55 1 70 41 70 98S169 2 115 4C84 4 66-9 55-30l1 105H24l-1-265h31l2 30c10-21 28-34 59-34zm-8 174c40 0 45-34 45-75s-6-73-45-74c-42 0-51 32-51 76 0 43 10 73 51 73" id="ad"/><path fill="#fff" d="M24 0v-261h32V0H24" id="ae"/><path fill="#fff" d="M100-194c63 0 86 42 84 106H49c0 40 14 67 53 68 26 1 43-12 49-29l28 8c-11 28-37 45-77 45C44 4 14-33 15-96c1-61 26-98 85-98zm52 81c6-60-76-77-97-28-3 7-6 17-6 28h103" id="af"/><g id="c"><use transform="matrix(0.07440405878990376,0,0,0.07440405878990376,0,0)" xlink:href="#Z"/><use transform="matrix(0.07440405878990376,0,0,0.07440405878990376,13.392730582182677,0)" xlink:href="#aa"/><use transform="matrix(0.07440405878990376,0,0,0.07440405878990376,19.270651226585073,0)" xlink:href="#ac"/><use transform="matrix(0.07440405878990376,0,0,0.07440405878990376,41.5174648047663,0)" xlink:href="#ad"/><use transform="matrix(0.07440405878990376,0,0,0.07440405878990376,56.39827656274705,0)" xlink:href="#ae"/><use transform="matrix(0.07440405878990376,0,0,0.07440405878990376,62.276197207149444,0)" xlink:href="#af"/></g><path fill="#fff" d="M85-194c31 0 48 13 60 33l-1-100h32l1 261h-30c-2-10 0-23-3-31C134-8 116 4 85 4 32 4 16-35 15-94c0-66 23-100 70-100zm9 24c-40 0-46 34-46 75 0 40 6 74 45 74 42 0 51-32 51-76 0-42-9-74-50-73" id="ag"/><path fill="#fff" d="M59-47c-2 24 18 29 38 22v24C64 9 27 4 27-40v-127H5v-23h24l9-43h21v43h35v23H59v120" id="ah"/><g id="d"><use transform="matrix(0.07440405878990376,0,0,0.07440405878990376,0,0)" xlink:href="#ag"/><use transform="matrix(0.07440405878990376,0,0,0.07440405878990376,14.880811757980753,0)" xlink:href="#Y"/><use transform="matrix(0.07440405878990376,0,0,0.07440405878990376,29.761623515961507,0)" xlink:href="#ah"/><use transform="matrix(0.07440405878990376,0,0,0.07440405878990376,37.202029394951886,0)" xlink:href="#Y"/><use transform="matrix(0.07440405878990376,0,0,0.07440405878990376,52.08284115293263,0)" xlink:href="#Z"/><use transform="matrix(0.07440405878990376,0,0,0.07440405878990376,65.47557173511531,0)" xlink:href="#af"/><use transform="matrix(0.07440405878990376,0,0,0.07440405878990376,80.35638349309606,0)" xlink:href="#ah"/><use transform="matrix(0.07440405878990376,0,0,0.07440405878990376,87.79678937208644,0)" xlink:href="#ah"/></g><path fill="#fff" d="M100-194c62-1 85 37 85 99 1 63-27 99-86 99S16-35 15-95c0-66 28-99 85-99zM99-20c44 1 53-31 53-75 0-43-8-75-51-75s-53 32-53 75 10 74 51 75" id="ai"/><g id="e"><use transform="matrix(0.07440405878990376,0,0,0.07440405878990376,0,0)" xlink:href="#ah"/><use transform="matrix(0.07440405878990376,0,0,0.07440405878990376,7.440405878990377,0)" xlink:href="#ai"/></g><path fill="#fff" d="M114-163C36-179 61-72 57 0H25l-1-190h30c1 12-1 29 2 39 6-27 23-49 58-41v29" id="aj"/><path fill="#fff" d="M84 4C-5 8 30-112 23-190h32v120c0 31 7 50 39 49 72-2 45-101 50-169h31l1 190h-30c-1-10 1-25-2-33-11 22-28 36-60 37" id="ak"/><path fill="#fff" d="M117-194c89-4 53 116 60 194h-32v-121c0-31-8-49-39-48C34-167 62-67 57 0H25l-1-190h30c1 10-1 24 2 32 11-22 29-35 61-36" id="al"/><g id="f"><use transform="matrix(0.07440405878990376,0,0,0.07440405878990376,0,0)" xlink:href="#aj"/><use transform="matrix(0.07440405878990376,0,0,0.07440405878990376,8.854082995998548,0)" xlink:href="#ak"/><use transform="matrix(0.07440405878990376,0,0,0.07440405878990376,23.7348947539793,0)" xlink:href="#al"/></g><path fill="#fff" d="M106-169C34-169 62-67 57 0H25v-261h32l-1 103c12-21 28-36 61-36 89 0 53 116 60 194h-32v-121c2-32-8-49-39-48" id="am"/><g id="g"><use transform="matrix(0.07440405878990376,0,0,0.07440405878990376,0,0)" xlink:href="#ah"/><use transform="matrix(0.07440405878990376,0,0,0.07440405878990376,7.440405878990377,0)" xlink:href="#am"/><use transform="matrix(0.07440405878990376,0,0,0.07440405878990376,22.321217636971127,0)" xlink:href="#af"/></g><g id="h"><use transform="matrix(0.07440405878990376,0,0,0.07440405878990376,0,0)" xlink:href="#ag"/><use transform="matrix(0.07440405878990376,0,0,0.07440405878990376,14.880811757980753,0)" xlink:href="#af"/><use transform="matrix(0.07440405878990376,0,0,0.07440405878990376,29.761623515961507,0)" xlink:href="#ac"/><use transform="matrix(0.07440405878990376,0,0,0.07440405878990376,52.008437094142735,0)" xlink:href="#ai"/></g><path fill="#212529" d="M121-226c-27-7-43 5-38 36h38v33H83V0H34v-157H6v-33h28c-9-59 32-81 87-68v32" id="an"/><path fill="#212529" d="M135-150c-39-12-60 13-60 57V0H25l-1-190h47c2 13-1 29 3 40 6-28 27-53 61-41v41" id="ao"/><path fill="#212529" d="M133-34C117-15 103 5 69 4 32 3 11-16 11-54c-1-60 55-63 116-61 1-26-3-47-28-47-18 1-26 9-28 27l-52-2c7-38 36-58 82-57s74 22 75 68l1 82c-1 14 12 18 25 15v27c-30 8-71 5-69-32zm-48 3c29 0 43-24 42-57-32 0-66-3-65 30 0 17 8 27 23 27" id="ap"/><path fill="#212529" d="M220-157c-53 9-28 100-34 157h-49v-107c1-27-5-49-29-50C55-147 81-57 75 0H25l-1-190h47c2 12-1 28 3 38 10-53 101-56 108 0 13-22 24-43 59-42 82 1 51 116 57 194h-49v-107c-1-25-5-48-29-50" id="aq"/><path fill="#212529" d="M14-72v-43h91v43H14" id="ar"/><path fill="#212529" d="M190-63c-7 42-38 67-86 67-59 0-84-38-90-98-12-110 154-137 174-36l-49 2c-2-19-15-32-35-32-30 0-35 28-38 64-6 74 65 87 74 30" id="as"/><path fill="#212529" d="M110-194c64 0 96 36 96 99 0 64-35 99-97 99-61 0-95-36-95-99 0-62 34-99 96-99zm-1 164c35 0 45-28 45-65 0-40-10-65-43-65-34 0-45 26-45 65 0 36 10 65 43 65" id="at"/><path fill="#212529" d="M185-48c-13 30-37 53-82 52C43 2 14-33 14-96s30-98 90-98c62 0 83 45 84 108H66c0 31 8 55 39 56 18 0 30-7 34-22zm-45-69c5-46-57-63-70-21-2 6-4 13-4 21h74" id="au"/><g id="i"><use transform="matrix(0.11160608818485564,0,0,0.11160608818485564,0,0)" xlink:href="#an"/><use transform="matrix(0.11160608818485564,0,0,0.11160608818485564,13.28112449399782,0)" xlink:href="#ao"/><use transform="matrix(0.11160608818485564,0,0,0.11160608818485564,28.90597683987761,0)" xlink:href="#ap"/><use transform="matrix(0.11160608818485564,0,0,0.11160608818485564,51.22719447684874,0)" xlink:href="#aq"/><use transform="matrix(0.11160608818485564,0,0,0.11160608818485564,86.94114269600254,0)" xlink:href="#ar"/><use transform="matrix(0.11160608818485564,0,0,0.11160608818485564,100.22226719000037,0)" xlink:href="#as"/><use transform="matrix(0.11160608818485564,0,0,0.11160608818485564,122.5434848269715,0)" xlink:href="#at"/><use transform="matrix(0.11160608818485564,0,0,0.11160608818485564,146.98521813945487,0)" xlink:href="#ao"/><use transform="matrix(0.11160608818485564,0,0,0.11160608818485564,162.61007048533466,0)" xlink:href="#au"/></g><path fill="#212529" d="M96-169c-40 0-48 33-48 73s9 75 48 75c24 0 41-14 43-38l32 2c-6 37-31 61-74 61-59 0-76-41-82-99-10-93 101-131 147-64 4 7 5 14 7 22l-32 3c-4-21-16-35-41-35" id="av"/><path fill="#212529" d="M100-194c62-1 85 37 85 99 1 63-27 99-86 99S16-35 15-95c0-66 28-99 85-99zM99-20c44 1 53-31 53-75 0-43-8-75-51-75s-53 32-53 75 10 74 51 75" id="aw"/><path fill="#212529" d="M114-163C36-179 61-72 57 0H25l-1-190h30c1 12-1 29 2 39 6-27 23-49 58-41v29" id="ax"/><path fill="#212529" d="M100-194c63 0 86 42 84 106H49c0 40 14 67 53 68 26 1 43-12 49-29l28 8c-11 28-37 45-77 45C44 4 14-33 15-96c1-61 26-98 85-98zm52 81c6-60-76-77-97-28-3 7-6 17-6 28h103" id="ay"/><g id="j"><use transform="matrix(0.07440405878990376,0,0,0.07440405878990376,0,0)" xlink:href="#av"/><use transform="matrix(0.07440405878990376,0,0,0.07440405878990376,13.392730582182677,0)" xlink:href="#aw"/><use transform="matrix(0.07440405878990376,0,0,0.07440405878990376,28.27354234016343,0)" xlink:href="#ax"/><use transform="matrix(0.07440405878990376,0,0,0.07440405878990376,37.12762533616198,0)" xlink:href="#ay"/></g><path fill="#212529" d="M210-169c-67 3-38 105-44 169h-31v-121c0-29-5-50-35-48C34-165 62-65 56 0H25l-1-190h30c1 10-1 24 2 32 10-44 99-50 107 0 11-21 27-35 58-36 85-2 47 119 55 194h-31v-121c0-29-5-49-35-48" id="az"/><path fill="#212529" d="M85-194c31 0 48 13 60 33l-1-100h32l1 261h-30c-2-10 0-23-3-31C134-8 116 4 85 4 32 4 16-35 15-94c0-66 23-100 70-100zm9 24c-40 0-46 34-46 75 0 40 6 74 45 74 42 0 51-32 51-76 0-42-9-74-50-73" id="aA"/><path fill="#212529" d="M24 0v-261h32V0H24" id="aB"/><g id="k"><use transform="matrix(0.07440405878990376,0,0,0.07440405878990376,0,0)" xlink:href="#az"/><use transform="matrix(0.07440405878990376,0,0,0.07440405878990376,22.246813578181225,0)" xlink:href="#aw"/><use transform="matrix(0.07440405878990376,0,0,0.07440405878990376,37.12762533616198,0)" xlink:href="#aA"/><use transform="matrix(0.07440405878990376,0,0,0.07440405878990376,52.00843709414273,0)" xlink:href="#ay"/><use transform="matrix(0.07440405878990376,0,0,0.07440405878990376,66.88924885212349,0)" xlink:href="#aB"/></g><path fill="#212529" d="M141-36C126-15 110 5 73 4 37 3 15-17 15-53c-1-64 63-63 125-63 3-35-9-54-41-54-24 1-41 7-42 31l-33-3c5-37 33-52 76-52 45 0 72 20 72 64v82c-1 20 7 32 28 27v20c-31 9-61-2-59-35zM48-53c0 20 12 33 32 33 41-3 63-29 60-74-43 2-92-5-92 41" id="aC"/><path fill="#212529" d="M117-194c89-4 53 116 60 194h-32v-121c0-31-8-49-39-48C34-167 62-67 57 0H25l-1-190h30c1 10-1 24 2 32 11-22 29-35 61-36" id="aD"/><g id="l"><use transform="matrix(0.07440405878990376,0,0,0.07440405878990376,0,0)" xlink:href="#aC"/><use transform="matrix(0.07440405878990376,0,0,0.07440405878990376,14.880811757980753,0)" xlink:href="#aD"/><use transform="matrix(0.07440405878990376,0,0,0.07440405878990376,29.761623515961507,0)" xlink:href="#aA"/></g><path fill="#212529" d="M101-234c-31-9-42 10-38 44h38v23H63V0H32v-167H5v-23h27c-7-52 17-82 69-68v24" id="aE"/><path fill="#212529" d="M84 4C-5 8 30-112 23-190h32v120c0 31 7 50 39 49 72-2 45-101 50-169h31l1 190h-30c-1-10 1-25-2-33-11 22-28 36-60 37" id="aF"/><path fill="#212529" d="M59-47c-2 24 18 29 38 22v24C64 9 27 4 27-40v-127H5v-23h24l9-43h21v43h35v23H59v120" id="aG"/><path fill="#212529" d="M24-231v-30h32v30H24zM24 0v-190h32V0H24" id="aH"/><path fill="#212529" d="M179-190L93 31C79 59 56 82 12 73V49c39 6 53-20 64-50L1-190h34L92-34l54-156h33" id="aI"/><g id="m"><use transform="matrix(0.07440405878990376,0,0,0.07440405878990376,0,0)" xlink:href="#aE"/><use transform="matrix(0.07440405878990376,0,0,0.07440405878990376,7.440405878990377,0)" xlink:href="#aF"/><use transform="matrix(0.07440405878990376,0,0,0.07440405878990376,22.321217636971127,0)" xlink:href="#aD"/><use transform="matrix(0.07440405878990376,0,0,0.07440405878990376,37.202029394951886,0)" xlink:href="#av"/><use transform="matrix(0.07440405878990376,0,0,0.07440405878990376,50.594759977134565,0)" xlink:href="#aG"/><use transform="matrix(0.07440405878990376,0,0,0.07440405878990376,58.03516585612494,0)" xlink:href="#aH"/><use transform="matrix(0.07440405878990376,0,0,0.07440405878990376,63.913086500527335,0)" xlink:href="#aw"/><use transform="matrix(0.07440405878990376,0,0,0.07440405878990376,78.79389825850811,0)" xlink:href="#aD"/><use transform="matrix(0.07440405878990376,0,0,0.07440405878990376,93.67471001648883,0)" xlink:href="#aC"/><use transform="matrix(0.07440405878990376,0,0,0.07440405878990376,108.5555217744696,0)" xlink:href="#aB"/><use transform="matrix(0.07440405878990376,0,0,0.07440405878990376,114.43344241887199,0)" xlink:href="#aH"/><use transform="matrix(0.07440405878990376,0,0,0.07440405878990376,120.31136306327438,0)" xlink:href="#aG"/><use transform="matrix(0.07440405878990376,0,0,0.07440405878990376,127.75176894226476,0)" xlink:href="#aI"/></g><g id="n"><use transform="matrix(0.07440405878990376,0,0,0.07440405878990376,0,0)" xlink:href="#aE"/><use transform="matrix(0.07440405878990376,0,0,0.07440405878990376,7.440405878990377,0)" xlink:href="#aw"/><use transform="matrix(0.07440405878990376,0,0,0.07440405878990376,22.321217636971127,0)" xlink:href="#ax"/></g><g id="o"><use transform="matrix(0.07440405878990376,0,0,0.07440405878990376,0,0)" xlink:href="#aA"/><use transform="matrix(0.07440405878990376,0,0,0.07440405878990376,14.880811757980753,0)" xlink:href="#aC"/><use transform="matrix(0.07440405878990376,0,0,0.07440405878990376,29.761623515961507,0)" xlink:href="#aG"/><use transform="matrix(0.07440405878990376,0,0,0.07440405878990376,37.202029394951886,0)" xlink:href="#aC"/></g><path fill="#212529" d="M135-143c-3-34-86-38-87 0 15 53 115 12 119 90S17 21 10-45l28-5c4 36 97 45 98 0-10-56-113-15-118-90-4-57 82-63 122-42 12 7 21 19 24 35" id="aJ"/><g id="p"><use transform="matrix(0.07440405878990376,0,0,0.07440405878990376,0,0)" xlink:href="#aG"/><use transform="matrix(0.07440405878990376,0,0,0.07440405878990376,7.440405878990377,0)" xlink:href="#ax"/><use transform="matrix(0.07440405878990376,0,0,0.07440405878990376,16.294488874988925,0)" xlink:href="#aC"/><use transform="matrix(0.07440405878990376,0,0,0.07440405878990376,31.17530063296968,0)" xlink:href="#aD"/><use transform="matrix(0.07440405878990376,0,0,0.07440405878990376,46.05611239095043,0)" xlink:href="#aJ"/><use transform="matrix(0.07440405878990376,0,0,0.07440405878990376,59.44884297313312,0)" xlink:href="#aE"/><use transform="matrix(0.07440405878990376,0,0,0.07440405878990376,66.88924885212349,0)" xlink:href="#aw"/><use transform="matrix(0.07440405878990376,0,0,0.07440405878990376,81.77006061010424,0)" xlink:href="#ax"/><use transform="matrix(0.07440405878990376,0,0,0.07440405878990376,90.62414360610278,0)" xlink:href="#az"/><use transform="matrix(0.07440405878990376,0,0,0.07440405878990376,112.87095718428401,0)" xlink:href="#aC"/><use transform="matrix(0.07440405878990376,0,0,0.07440405878990376,127.75176894226476,0)" xlink:href="#aG"/><use transform="matrix(0.07440405878990376,0,0,0.07440405878990376,135.19217482125515,0)" xlink:href="#aH"/><use transform="matrix(0.07440405878990376,0,0,0.07440405878990376,141.07009546565754,0)" xlink:href="#aw"/><use transform="matrix(0.07440405878990376,0,0,0.07440405878990376,155.9509072236383,0)" xlink:href="#aD"/></g><path fill="#fff" d="M110-194c64 0 96 36 96 99 0 64-35 99-97 99-61 0-95-36-95-99 0-62 34-99 96-99zm-1 164c35 0 45-28 45-65 0-40-10-65-43-65-34 0-45 26-45 65 0 36 10 65 43 65" id="aK"/><g id="q"><use transform="matrix(0.11160608818485564,0,0,0.11160608818485564,0,0)" xlink:href="#O"/><use transform="matrix(0.11160608818485564,0,0,0.11160608818485564,13.28112449399782,0)" xlink:href="#P"/><use transform="matrix(0.11160608818485564,0,0,0.11160608818485564,28.90597683987761,0)" xlink:href="#Q"/><use transform="matrix(0.11160608818485564,0,0,0.11160608818485564,51.22719447684874,0)" xlink:href="#R"/><use transform="matrix(0.11160608818485564,0,0,0.11160608818485564,86.94114269600254,0)" xlink:href="#S"/><use transform="matrix(0.11160608818485564,0,0,0.11160608818485564,100.22226719000037,0)" xlink:href="#T"/><use transform="matrix(0.11160608818485564,0,0,0.11160608818485564,124.66400050248377,0)" xlink:href="#W"/><use transform="matrix(0.11160608818485564,0,0,0.11160608818485564,146.9852181394549,0)" xlink:href="#R"/><use transform="matrix(0.11160608818485564,0,0,0.11160608818485564,182.6991663586087,0)" xlink:href="#aK"/></g><g id="r"><use transform="matrix(0.07440405878990376,0,0,0.07440405878990376,0,0)" xlink:href="#ag"/><use transform="matrix(0.07440405878990376,0,0,0.07440405878990376,14.880811757980753,0)" xlink:href="#af"/><use transform="matrix(0.07440405878990376,0,0,0.07440405878990376,29.761623515961507,0)" xlink:href="#ac"/><use transform="matrix(0.07440405878990376,0,0,0.07440405878990376,52.008437094142735,0)" xlink:href="#ai"/></g><g id="s"><use transform="matrix(0.07440405878990376,0,0,0.07440405878990376,0,0)" xlink:href="#ab"/><use transform="matrix(0.07440405878990376,0,0,0.07440405878990376,13.392730582182677,0)" xlink:href="#Y"/><use transform="matrix(0.07440405878990376,0,0,0.07440405878990376,28.27354234016343,0)" xlink:href="#Z"/><use transform="matrix(0.07440405878990376,0,0,0.07440405878990376,41.66627292234611,0)" xlink:href="#af"/></g><path fill="#fff" d="M101-234c-31-9-42 10-38 44h38v23H63V0H32v-167H5v-23h27c-7-52 17-82 69-68v24" id="aL"/><g id="t"><use transform="matrix(0.07440405878990376,0,0,0.07440405878990376,0,0)" xlink:href="#aL"/><use transform="matrix(0.07440405878990376,0,0,0.07440405878990376,7.440405878990377,0)" xlink:href="#ai"/><use transform="matrix(0.07440405878990376,0,0,0.07440405878990376,22.321217636971127,0)" xlink:href="#aj"/></g><path fill="#fff" d="M63-220v92h138v28H63V0H30v-248h175v28H63" id="aM"/><path fill="#fff" d="M233-177c-1 41-23 64-60 70L243 0h-38l-65-103H63V0H30v-248c88 3 205-21 203 71zM63-129c60-2 137 13 137-47 0-61-80-42-137-45v92" id="aN"/><path fill="#fff" d="M205 0l-28-72H64L36 0H1l101-248h38L239 0h-34zm-38-99l-47-123c-12 45-31 82-46 123h93" id="aO"/><path fill="#fff" d="M240 0l2-218c-23 76-54 145-80 218h-23L58-218 59 0H30v-248h44l77 211c21-75 51-140 76-211h43V0h-30" id="aP"/><g id="u"><use transform="matrix(0.07440405878990376,0,0,0.07440405878990376,0,0)" xlink:href="#aM"/><use transform="matrix(0.07440405878990376,0,0,0.07440405878990376,16.294488874988925,0)" xlink:href="#aN"/><use transform="matrix(0.07440405878990376,0,0,0.07440405878990376,35.565140101574,0)" xlink:href="#aO"/><use transform="matrix(0.07440405878990376,0,0,0.07440405878990376,53.4221142111509,0)" xlink:href="#aP"/></g><path fill="#fff" d="M234-2c-28 10-62 0-77-18C117 19 8 12 13-65c3-43 29-61 60-76-25-40-17-114 47-108 35 3 59 15 59 50 0 44-40 53-71 69 14 26 32 50 51 72 14-21 24-43 30-72l26 8c-9 33-21 57-38 82 13 13 33 22 57 15v23zM97-151c25-10 52-18 56-48-1-18-13-29-33-29-42 0-39 50-23 77zM42-66c-3 51 71 58 98 28-20-24-41-51-56-80-23 10-40 24-42 52" id="aQ"/><use transform="matrix(0.07440405878990376,0,0,0.07440405878990376,0,0)" xlink:href="#aQ" id="v"/><path fill="#fff" d="M153-248C145-148 188 4 80 4 36 3 13-21 6-62l32-5c4 25 16 42 43 43 27 0 39-20 39-49v-147H72v-28h81" id="aR"/><path fill="#fff" d="M30 0v-248h187v28H63v79h144v27H63v87h162V0H30" id="aS"/><path fill="#fff" d="M185-189c-5-48-123-54-124 2 14 75 158 14 163 119 3 78-121 87-175 55-17-10-28-26-33-46l33-7c5 56 141 63 141-1 0-78-155-14-162-118-5-82 145-84 179-34 5 7 8 16 11 25" id="aT"/><g id="w"><use transform="matrix(0.07440405878990376,0,0,0.07440405878990376,0,0)" xlink:href="#aR"/><use transform="matrix(0.07440405878990376,0,0,0.07440405878990376,13.392730582182677,0)" xlink:href="#ak"/><use transform="matrix(0.07440405878990376,0,0,0.07440405878990376,28.27354234016343,0)" xlink:href="#ae"/><use transform="matrix(0.07440405878990376,0,0,0.07440405878990376,34.151462984565825,0)" xlink:href="#aS"/><use transform="matrix(0.07440405878990376,0,0,0.07440405878990376,52.00843709414273,0)" xlink:href="#aT"/></g><g id="x"><use transform="matrix(0.07440405878990376,0,0,0.07440405878990376,0,0)" xlink:href="#ac"/><use transform="matrix(0.07440405878990376,0,0,0.07440405878990376,22.246813578181225,0)" xlink:href="#ai"/><use transform="matrix(0.07440405878990376,0,0,0.07440405878990376,37.12762533616198,0)" xlink:href="#ag"/><use transform="matrix(0.07440405878990376,0,0,0.07440405878990376,52.00843709414273,0)" xlink:href="#af"/><use transform="matrix(0.07440405878990376,0,0,0.07440405878990376,66.88924885212349,0)" xlink:href="#ae"/></g><path fill="#212529" d="M88-194c31-1 46 15 58 34l-1-101h50l1 261h-48c-2-10 0-23-3-31C134-8 116 4 84 4 32 4 16-41 15-95c0-56 19-97 73-99zm17 164c33 0 40-30 41-66 1-37-9-64-41-64s-38 30-39 65c0 43 13 65 39 65" id="aU"/><path fill="#212529" d="M115-3C79 11 28 4 28-45v-112H4v-33h27l15-45h31v45h36v33H77v99c-1 23 16 31 38 25v30" id="aV"/><g id="z"><use transform="matrix(0.11160608818485564,0,0,0.11160608818485564,0,0)" xlink:href="#an"/><use transform="matrix(0.11160608818485564,0,0,0.11160608818485564,13.28112449399782,0)" xlink:href="#ao"/><use transform="matrix(0.11160608818485564,0,0,0.11160608818485564,28.90597683987761,0)" xlink:href="#ap"/><use transform="matrix(0.11160608818485564,0,0,0.11160608818485564,51.22719447684874,0)" xlink:href="#aq"/><use transform="matrix(0.11160608818485564,0,0,0.11160608818485564,86.94114269600254,0)" xlink:href="#ar"/><use transform="matrix(0.11160608818485564,0,0,0.11160608818485564,100.22226719000037,0)" xlink:href="#aU"/><use transform="matrix(0.11160608818485564,0,0,0.11160608818485564,124.66400050248377,0)" xlink:href="#ap"/><use transform="matrix(0.11160608818485564,0,0,0.11160608818485564,146.9852181394549,0)" xlink:href="#aV"/><use transform="matrix(0.11160608818485564,0,0,0.11160608818485564,160.26634263345272,0)" xlink:href="#ap"/></g><g id="A"><use transform="matrix(0.07440405878990376,0,0,0.07440405878990376,0,0)" xlink:href="#aE"/><use transform="matrix(0.07440405878990376,0,0,0.07440405878990376,7.440405878990377,0)" xlink:href="#aF"/><use transform="matrix(0.07440405878990376,0,0,0.07440405878990376,22.321217636971127,0)" xlink:href="#aD"/><use transform="matrix(0.07440405878990376,0,0,0.07440405878990376,37.202029394951886,0)" xlink:href="#av"/><use transform="matrix(0.07440405878990376,0,0,0.07440405878990376,50.594759977134565,0)" xlink:href="#aG"/><use transform="matrix(0.07440405878990376,0,0,0.07440405878990376,58.03516585612494,0)" xlink:href="#aH"/><use transform="matrix(0.07440405878990376,0,0,0.07440405878990376,63.913086500527335,0)" xlink:href="#aw"/><use transform="matrix(0.07440405878990376,0,0,0.07440405878990376,78.79389825850811,0)" xlink:href="#aD"/><use transform="matrix(0.07440405878990376,0,0,0.07440405878990376,93.67471001648883,0)" xlink:href="#aC"/><use transform="matrix(0.07440405878990376,0,0,0.07440405878990376,108.5555217744696,0)" xlink:href="#aB"/><use transform="matrix(0.07440405878990376,0,0,0.07440405878990376,114.43344241887199,0)" xlink:href="#aH"/><use transform="matrix(0.07440405878990376,0,0,0.07440405878990376,120.31136306327438,0)" xlink:href="#aG"/><use transform="matrix(0.07440405878990376,0,0,0.07440405878990376,127.75176894226476,0)" xlink:href="#aI"/></g><g id="B"><use transform="matrix(0.07440405878990376,0,0,0.07440405878990376,0,0)" xlink:href="#aE"/><use transform="matrix(0.07440405878990376,0,0,0.07440405878990376,7.440405878990377,0)" xlink:href="#aw"/><use transform="matrix(0.07440405878990376,0,0,0.07440405878990376,22.321217636971127,0)" xlink:href="#ax"/></g><path fill="#212529" d="M177-190C167-65 218 103 67 71c-23-6-38-20-44-43l32-5c15 47 100 32 89-28v-30C133-14 115 1 83 1 29 1 15-40 15-95c0-56 16-97 71-98 29-1 48 16 59 35 1-10 0-23 2-32h30zM94-22c36 0 50-32 50-73 0-42-14-75-50-75-39 0-46 34-46 75s6 73 46 73" id="aW"/><g id="C"><use transform="matrix(0.07440405878990376,0,0,0.07440405878990376,0,0)" xlink:href="#ax"/><use transform="matrix(0.07440405878990376,0,0,0.07440405878990376,8.854082995998548,0)" xlink:href="#ay"/><use transform="matrix(0.07440405878990376,0,0,0.07440405878990376,23.7348947539793,0)" xlink:href="#aC"/><use transform="matrix(0.07440405878990376,0,0,0.07440405878990376,38.615706511960056,0)" xlink:href="#aA"/><use transform="matrix(0.07440405878990376,0,0,0.07440405878990376,53.49651826994081,0)" xlink:href="#aH"/><use transform="matrix(0.07440405878990376,0,0,0.07440405878990376,59.3744389143432,0)" xlink:href="#aD"/><use transform="matrix(0.07440405878990376,0,0,0.07440405878990376,74.25525067232395,0)" xlink:href="#aW"/></g><g id="D"><use transform="matrix(0.07440405878990376,0,0,0.07440405878990376,0,0)" xlink:href="#aA"/><use transform="matrix(0.07440405878990376,0,0,0.07440405878990376,14.880811757980753,0)" xlink:href="#aC"/><use transform="matrix(0.07440405878990376,0,0,0.07440405878990376,29.761623515961507,0)" xlink:href="#aG"/><use transform="matrix(0.07440405878990376,0,0,0.07440405878990376,37.202029394951886,0)" xlink:href="#aC"/><use transform="matrix(0.07440405878990376,0,0,0.07440405878990376,52.08284115293263,0)" xlink:href="#aJ"/><use transform="matrix(0.07440405878990376,0,0,0.07440405878990376,65.47557173511531,0)" xlink:href="#ay"/><use transform="matrix(0.07440405878990376,0,0,0.07440405878990376,80.35638349309606,0)" xlink:href="#aG"/></g><g id="E"><use transform="matrix(0.07440405878990376,0,0,0.07440405878990376,0,0)" xlink:href="#aC"/><use transform="matrix(0.07440405878990376,0,0,0.07440405878990376,14.880811757980753,0)" xlink:href="#aD"/><use transform="matrix(0.07440405878990376,0,0,0.07440405878990376,29.761623515961507,0)" xlink:href="#aA"/></g><g id="F"><use transform="matrix(0.07440405878990376,0,0,0.07440405878990376,0,0)" xlink:href="#aJ"/><use transform="matrix(0.07440405878990376,0,0,0.07440405878990376,13.392730582182677,0)" xlink:href="#ay"/><use transform="matrix(0.07440405878990376,0,0,0.07440405878990376,28.27354234016343,0)" xlink:href="#aD"/><use transform="matrix(0.07440405878990376,0,0,0.07440405878990376,43.15435409814418,0)" xlink:href="#aA"/><use transform="matrix(0.07440405878990376,0,0,0.07440405878990376,58.035165856124934,0)" xlink:href="#aH"/><use transform="matrix(0.07440405878990376,0,0,0.07440405878990376,63.913086500527335,0)" xlink:href="#aD"/><use transform="matrix(0.07440405878990376,0,0,0.07440405878990376,78.79389825850808,0)" xlink:href="#aW"/></g><g id="G"><use transform="matrix(0.07440405878990376,0,0,0.07440405878990376,0,0)" xlink:href="#aH"/><use transform="matrix(0.07440405878990376,0,0,0.07440405878990376,5.877920644402397,0)" xlink:href="#aG"/></g><g id="H"><use transform="matrix(0.07440405878990376,0,0,0.07440405878990376,0,0)" xlink:href="#aG"/><use transform="matrix(0.07440405878990376,0,0,0.07440405878990376,7.440405878990377,0)" xlink:href="#aw"/></g><g id="I"><use transform="matrix(0.07440405878990376,0,0,0.07440405878990376,0,0)" xlink:href="#av"/><use transform="matrix(0.07440405878990376,0,0,0.07440405878990376,13.392730582182677,0)" xlink:href="#aw"/><use transform="matrix(0.07440405878990376,0,0,0.07440405878990376,28.27354234016343,0)" xlink:href="#ax"/><use transform="matrix(0.07440405878990376,0,0,0.07440405878990376,37.12762533616198,0)" xlink:href="#ay"/></g><g id="J"><use transform="matrix(0.07440405878990376,0,0,0.07440405878990376,0,0)" xlink:href="#az"/><use transform="matrix(0.07440405878990376,0,0,0.07440405878990376,22.246813578181225,0)" xlink:href="#aw"/><use transform="matrix(0.07440405878990376,0,0,0.07440405878990376,37.12762533616198,0)" xlink:href="#aA"/><use transform="matrix(0.07440405878990376,0,0,0.07440405878990376,52.00843709414273,0)" xlink:href="#ay"/><use transform="matrix(0.07440405878990376,0,0,0.07440405878990376,66.88924885212349,0)" xlink:href="#aB"/></g><path fill="#212529" d="M25-224v-37h50v37H25zM75 22c2 45-34 59-81 51V38c22 5 31-5 31-27v-201h50V22" id="aX"/><path fill="#212529" d="M85 4C-2 5 27-109 22-190h50c7 57-23 150 33 157 60-5 35-97 40-157h50l1 190h-47c-2-12 1-28-3-38-12 25-28 42-61 42" id="aY"/><path fill="#212529" d="M25 0v-261h50V0H25" id="aZ"/><path fill="#212529" d="M137-138c1-29-70-34-71-4 15 46 118 7 119 86 1 83-164 76-172 9l43-7c4 19 20 25 44 25 33 8 57-30 24-41C81-84 22-81 20-136c-2-80 154-74 161-7" id="ba"/><g id="K"><use transform="matrix(0.11160608818485564,0,0,0.11160608818485564,0,0)" xlink:href="#an"/><use transform="matrix(0.11160608818485564,0,0,0.11160608818485564,13.28112449399782,0)" xlink:href="#ao"/><use transform="matrix(0.11160608818485564,0,0,0.11160608818485564,28.90597683987761,0)" xlink:href="#ap"/><use transform="matrix(0.11160608818485564,0,0,0.11160608818485564,51.22719447684874,0)" xlink:href="#aq"/><use transform="matrix(0.11160608818485564,0,0,0.11160608818485564,86.94114269600254,0)" xlink:href="#ar"/><use transform="matrix(0.11160608818485564,0,0,0.11160608818485564,100.22226719000037,0)" xlink:href="#aX"/><use transform="matrix(0.11160608818485564,0,0,0.11160608818485564,111.38287600848594,0)" xlink:href="#aY"/><use transform="matrix(0.11160608818485564,0,0,0.11160608818485564,135.82460932096933,0)" xlink:href="#aZ"/><use transform="matrix(0.11160608818485564,0,0,0.11160608818485564,146.9852181394549,0)" xlink:href="#au"/><use transform="matrix(0.11160608818485564,0,0,0.11160608818485564,169.30643577642604,0)" xlink:href="#ba"/></g><path fill="#212529" d="M205 0l-28-72H64L36 0H1l101-248h38L239 0h-34zm-38-99l-47-123c-12 45-31 82-46 123h93" id="bb"/><path fill="#212529" d="M30-248c87 1 191-15 191 75 0 78-77 80-158 76V0H30v-248zm33 125c57 0 124 11 124-50 0-59-68-47-124-48v98" id="bc"/><path fill="#212529" d="M33 0v-248h34V0H33" id="bd"/><g id="L"><use transform="matrix(0.07440405878990376,0,0,0.07440405878990376,0,0)" xlink:href="#bb"/><use transform="matrix(0.07440405878990376,0,0,0.07440405878990376,17.856974109576903,0)" xlink:href="#bc"/><use transform="matrix(0.07440405878990376,0,0,0.07440405878990376,35.71394821915381,0)" xlink:href="#bd"/></g><path fill="#212529" d="M153-248C145-148 188 4 80 4 36 3 13-21 6-62l32-5c4 25 16 42 43 43 27 0 39-20 39-49v-147H72v-28h81" id="be"/><path fill="#212529" d="M30 0v-248h187v28H63v79h144v27H63v87h162V0H30" id="bf"/><path fill="#212529" d="M185-189c-5-48-123-54-124 2 14 75 158 14 163 119 3 78-121 87-175 55-17-10-28-26-33-46l33-7c5 56 141 63 141-1 0-78-155-14-162-118-5-82 145-84 179-34 5 7 8 16 11 25" id="bg"/><g id="M"><use transform="matrix(0.07440405878990376,0,0,0.07440405878990376,0,0)" xlink:href="#be"/><use transform="matrix(0.07440405878990376,0,0,0.07440405878990376,13.392730582182677,0)" xlink:href="#aF"/><use transform="matrix(0.07440405878990376,0,0,0.07440405878990376,28.27354234016343,0)" xlink:href="#aB"/><use transform="matrix(0.07440405878990376,0,0,0.07440405878990376,34.151462984565825,0)" xlink:href="#bf"/><use transform="matrix(0.07440405878990376,0,0,0.07440405878990376,52.00843709414273,0)" xlink:href="#bg"/></g><g id="N"><use transform="matrix(0.07440405878990376,0,0,0.07440405878990376,0,0)" xlink:href="#az"/><use transform="matrix(0.07440405878990376,0,0,0.07440405878990376,22.246813578181225,0)" xlink:href="#aw"/><use transform="matrix(0.07440405878990376,0,0,0.07440405878990376,37.12762533616198,0)" xlink:href="#aA"/><use transform="matrix(0.07440405878990376,0,0,0.07440405878990376,52.00843709414273,0)" xlink:href="#ay"/><use transform="matrix(0.07440405878990376,0,0,0.07440405878990376,66.88924885212349,0)" xlink:href="#aB"/></g></defs></g></svg>