<svg xmlns="http://www.w3.org/2000/svg" xmlns:xlink="http://www.w3.org/1999/xlink" xmlns:lucid="lucid" width="692.15" height="238.01"><g transform="translate(5361.460949594323 1565.949810657702)" lucid:page-tab-id="0_0"><path d="M-6784-2592h3456v3952h-3456z" fill="#fff"/><path d="M-5360.96-1559.45a6 6 0 0 1 6-6h679.15a6 6 0 0 1 6 6v225a6 6 0 0 1-6 6h-679.16a6 6 0 0 1-6-6z" stroke="#000" fill-opacity="0"/><path d="M-4984.68-1408.44c0 22.1-17.9 40-40 40s-40-17.9-40-40 17.9-40 40-40 40 17.9 40 40z" stroke="#000" fill="#54c45e"/><use xlink:href="#a" transform="matrix(1,0,0,1,-5059.6814009832115,-1443.444810657702) translate(12.034505208333336 43.40277777777778)"/><path d="M-5166.96-1408.44h83.28" stroke="#000" stroke-width="2" fill="none"/><path d="M-5166.93-1407.47h-1.03v-1.95h1.03z" stroke="#000" stroke-width=".05"/><path d="M-5068.42-1408.44l-14.26 4.63v-9.28z" stroke="#000" stroke-width="2"/><path d="M-5280.96-1439.45a6 6 0 0 1 6-6h101a6 6 0 0 1 6 6v62a6 6 0 0 1-6 6h-101a6 6 0 0 1-6-6z" fill="none"/><use xlink:href="#b" transform="matrix(1,0,0,1,-5275.960949594323,-1440.449810657702) translate(0 40.5)"/><path d="M-4871.1-1439.45a6 6 0 0 1 6-6h123.68a6 6 0 0 1 6 6v62a6 6 0 0 1-6 6h-123.67a6 6 0 0 1-6-6z" fill="none"/><use xlink:href="#c" transform="matrix(1,0,0,1,-4866.085926446174,-1440.449810657702) translate(0 40.5)"/><path d="M-4983.18-1408.44h93.6" stroke="#000" stroke-width="2" fill="none"/><path d="M-4983.15-1407.47h-1.1l.07-.97-.04-.98h1.07z" stroke="#000" stroke-width=".05"/><path d="M-4874.32-1408.44l-14.27 4.63v-9.28z" stroke="#000" stroke-width="2"/><path d="M-5260.96-1522.44a6 6 0 0 1 6-6h479.15a6 6 0 0 1 6 6v24.9a6 6 0 0 1-6 6h-479.16a6 6 0 0 1-6-6z" fill="none"/><use xlink:href="#d" transform="matrix(1,0,0,1,-5255.960949594322,-1523.444810657702) translate(0 21.58376736111111)"/><use xlink:href="#e" transform="matrix(1,0,0,1,-5255.960949594322,-1523.444810657702) translate(49.32725694444444 21.58376736111111)"/><use xlink:href="#f" transform="matrix(1,0,0,1,-5255.960949594322,-1523.444810657702) translate(121.21310763888889 21.58376736111111)"/><use xlink:href="#g" transform="matrix(1,0,0,1,-5255.960949594322,-1523.444810657702) translate(180.47960069444443 21.58376736111111)"/><use xlink:href="#h" transform="matrix(1,0,0,1,-5255.960949594322,-1523.444810657702) translate(230.70746527777777 21.58376736111111)"/><use xlink:href="#i" transform="matrix(1,0,0,1,-5255.960949594322,-1523.444810657702) translate(350.43402777777777 21.58376736111111)"/><use xlink:href="#j" transform="matrix(1,0,0,1,-5255.960949594322,-1523.444810657702) translate(395.8984375 21.58376736111111)"/><defs><path d="M645 0H180v-1490h484c435 0 692 280 692 742 0 466-257 748-711 748zM370-168h263c363 0 539-218 539-580 0-358-176-574-521-574H370v1154" id="k"/><path d="M180 0v-1490h908v168H370v486h669v168H370v500h727V0H180" id="l"/><path d="M763 24c-353 0-583-224-583-531v-983h190v968c0 214 149 370 393 370 243 0 391-156 391-370v-968h190v983c0 307-230 531-581 531" id="m"/><g id="a"><use transform="matrix(0.010850694444444444,0,0,0.010850694444444444,0,0)" xlink:href="#k"/><use transform="matrix(0.010850694444444444,0,0,0.010850694444444444,16.03732638888889,0)" xlink:href="#l"/><use transform="matrix(0.010850694444444444,0,0,0.010850694444444444,29.39453125,0)" xlink:href="#m"/></g><path d="M78-106L62-14l39 5-2 9H-2l2-9 28-5 37-208-29-4 1-10h186l-10 57h-12l1-38c-30-4-68-3-103-3l-18 98h78l11-28h11l-13 73h-11v-29H78" id="n"/><path d="M165-71C165 10 60 18 4-13l9-52h12v33C53 9 163-15 130-79c-21-40-93-34-95-95-2-67 80-72 139-58l-8 49h-12c-1-18 3-37-16-37-34-11-77 3-72 40 8 57 99 40 99 109" id="o"/><path d="M103-156c-44 0-59 47-61 96 0 29 9 49 35 49 45 0 62-48 62-96 0-29-11-49-36-49zm66 56C168-39 135 4 75 4 34 4 10-23 11-66c1-61 34-104 94-104 41 0 65 27 64 70" id="p"/><path d="M50-12l28 4-1 8H19l42-238-23-4 2-8h52" id="q"/><path d="M109-169c21-2 37 13 48 1h9L139-12l20 4-2 8h-50l5-27C96-11 82 4 58 4 25 4 10-20 11-55c2-65 34-107 98-114zM42-60c0 51 54 48 72 17l20-104c-53-30-92 31-92 87" id="r"/><path d="M65-128c17-22 38-47 76-40l-8 43c-13 1-9-15-14-22-28 2-42 22-56 39L44 0H15l26-153-20-4 1-8h49" id="s"/><path d="M63-17c98 13 155-28 155-121 0-68-48-86-119-82zm192-122C255-6 140 11-4 0l2-9 30-5 37-208-29-4 1-10c107-2 218-10 218 97" id="t"/><path d="M-2-9l30-5 37-208-29-4 1-10h177l-10 57h-12l2-38c-28-4-63-3-95-3l-17 92h64l10-28h12l-13 73h-11l-1-29H80L63-16l106-3 18-43h11L184 0H-4" id="u"/><path d="M71-80C52-12 142 1 180-36c40-39 30-125 48-186l-30-4 1-10h80l-1 10-31 4C224-127 241 3 119 4 63 5 27-22 37-80l25-142-29-4 2-10h94l-2 10-31 4" id="v"/><g id="b"><use transform="matrix(0.1111111111111111,0,0,0.1111111111111111,0,0)" xlink:href="#n"/><use transform="matrix(0.05185185185185186,0,0,0.05185185185185186,24.333333333333332,-7.466666666666668)" xlink:href="#o"/><use transform="matrix(0.05185185185185186,0,0,0.05185185185185186,33.666666666666664,-7.466666666666668)" xlink:href="#p"/><use transform="matrix(0.05185185185185186,0,0,0.05185185185185186,43,-7.466666666666668)" xlink:href="#q"/><use transform="matrix(0.05185185185185186,0,0,0.05185185185185186,48.18518518518518,-7.466666666666668)" xlink:href="#r"/><use transform="matrix(0.05185185185185186,0,0,0.05185185185185186,57.51851851851852,-7.466666666666668)" xlink:href="#s"/><use transform="matrix(0.05185185185185186,0,0,0.05185185185185186,64.77777777777779,-7.466666666666668)" xlink:href="#t"/><use transform="matrix(0.05185185185185186,0,0,0.05185185185185186,78.20740740740742,-7.466666666666668)" xlink:href="#u"/><use transform="matrix(0.05185185185185186,0,0,0.05185185185185186,89.56296296296297,-7.466666666666668)" xlink:href="#v"/></g><path d="M43-73c-15 62 59 70 91 41l5 7C122-11 100 4 70 4 31 4 11-19 11-58c0-67 42-123 113-109 16 3 26 15 28 33-8 46-58 56-109 61zm78-61c0-37-45-19-57 1-8 14-15 33-20 49 39-4 77-13 77-50" id="w"/><path d="M121-170c21-1 33 15 32 39 14-18 29-37 57-39 32-2 32 39 27 68l-15 90 23 4-2 8h-53l23-131c-12-37-53-2-60 19-11 34-14 75-22 112h-29l23-131c-12-38-56-2-62 19C52-77 49-37 42 0H13l27-153-21-4 2-8h48l-4 34c13-18 28-38 56-39" id="x"/><path d="M65-132c14-36 103-60 96 5-4 40-13 77-19 115l23 4-1 8h-53l22-131c-12-41-64 1-72 20L42 0H13l27-153c-7-4-24 0-20-12h49" id="y"/><path d="M11-56c0-73 50-126 127-109l12-73-27-4 1-8h57L139-12l20 4-2 8h-50l5-27C96-11 82 4 58 4 25 4 11-21 11-56zm31-4c0 51 51 49 72 17l20-104c-54-29-92 30-92 87" id="z"/><g id="c"><use transform="matrix(0.1111111111111111,0,0,0.1111111111111111,0,0)" xlink:href="#n"/><use transform="matrix(0.05185185185185186,0,0,0.05185185185185186,24.333333333333332,-7.466666666666668)" xlink:href="#t"/><use transform="matrix(0.05185185185185186,0,0,0.05185185185185186,37.76296296296296,-7.466666666666668)" xlink:href="#w"/><use transform="matrix(0.05185185185185186,0,0,0.05185185185185186,46.007407407407406,-7.466666666666668)" xlink:href="#x"/><use transform="matrix(0.05185185185185186,0,0,0.05185185185185186,59.43703703703704,-7.466666666666668)" xlink:href="#r"/><use transform="matrix(0.05185185185185186,0,0,0.05185185185185186,68.77037037037037,-7.466666666666668)" xlink:href="#y"/><use transform="matrix(0.05185185185185186,0,0,0.05185185185185186,78.1037037037037,-7.466666666666668)" xlink:href="#z"/><use transform="matrix(0.05185185185185186,0,0,0.05185185185185186,87.43703703703703,-7.466666666666668)" xlink:href="#t"/><use transform="matrix(0.05185185185185186,0,0,0.05185185185185186,100.86666666666666,-7.466666666666668)" xlink:href="#u"/><use transform="matrix(0.05185185185185186,0,0,0.05185185185185186,112.2222222222222,-7.466666666666668)" xlink:href="#v"/></g><path d="M784 20c-382 0-662-292-662-764 0-473 280-766 662-766s660 293 660 766c0 472-278 764-660 764zm0-176c266 0 475-207 475-588 0-383-209-590-475-590-268 0-477 208-477 590 0 380 209 588 477 588" id="A"/><path d="M338-670V0H158v-1118h173l1 207c72-158 192-221 342-221 226 0 378 139 378 422V0H872v-695c0-172-96-275-252-275-161 0-282 109-282 300" id="B"/><path d="M628 24c-324 0-524-230-524-574 0-343 198-582 503-582 237 0 487 146 487 559v75H286c9 234 145 362 343 362 132 0 231-58 273-172l174 48C1024-91 857 24 628 24zM287-650h624c-17-190-120-322-304-322-192 0-309 151-320 322" id="C"/><g id="d"><use transform="matrix(0.010850694444444444,0,0,0.010850694444444444,0,0)" xlink:href="#A"/><use transform="matrix(0.010850694444444444,0,0,0.010850694444444444,16.9921875,0)" xlink:href="#B"/><use transform="matrix(0.010850694444444444,0,0,0.010850694444444444,30.121527777777775,0)" xlink:href="#C"/></g><path d="M158 418v-1536h174v179h20c37-59 106-193 324-193 279 0 474 222 474 576 0 356-194 580-473 580-213 0-288-135-325-197h-14v591H158zm492-555c209 0 317-186 317-421 0-232-105-413-317-413-206 0-314 166-314 413 0 249 111 421 314 421" id="D"/><path d="M613 24c-304 0-509-231-509-576 0-350 205-580 509-580 305 0 511 230 511 580 0 345-206 576-511 576zm0-161c226 0 329-195 329-415 0-222-103-419-329-419-223 0-326 196-326 419 0 220 103 415 326 415" id="E"/><path d="M409 0L70-1118h191c89 329 165 560 243 925 75-353 154-601 240-925h192c85 325 161 564 235 922 77-354 157-598 244-922h191L1267 0h-179c-86-307-176-590-250-913C763-588 675-308 588 0H409" id="F"/><path d="M158 0v-1118h174v172h12c41-113 157-188 290-188 26 0 70 2 91 3v181c-11-2-60-10-108-10-161 0-279 109-279 260V0H158" id="G"/><g id="e"><use transform="matrix(0.010850694444444444,0,0,0.010850694444444444,0,0)" xlink:href="#D"/><use transform="matrix(0.010850694444444444,0,0,0.010850694444444444,13.606770833333332,0)" xlink:href="#E"/><use transform="matrix(0.010850694444444444,0,0,0.010850694444444444,26.529947916666664,0)" xlink:href="#F"/><use transform="matrix(0.010850694444444444,0,0,0.010850694444444444,44.314236111111114,0)" xlink:href="#C"/><use transform="matrix(0.010850694444444444,0,0,0.010850694444444444,57.26996527777778,0)" xlink:href="#G"/></g><path d="M577 24c-279 0-473-224-473-580 0-354 195-576 474-576 218 0 287 134 324 193h14v-551h180V0H922v-173h-20C865-111 790 24 577 24zm27-161c203 0 314-172 314-421 0-247-108-413-314-413-212 0-317 181-317 413 0 235 108 421 317 421" id="H"/><g id="f"><use transform="matrix(0.010850694444444444,0,0,0.010850694444444444,0,0)" xlink:href="#B"/><use transform="matrix(0.010850694444444444,0,0,0.010850694444444444,13.129340277777777,0)" xlink:href="#E"/><use transform="matrix(0.010850694444444444,0,0,0.010850694444444444,26.453993055555554,0)" xlink:href="#H"/><use transform="matrix(0.010850694444444444,0,0,0.010850694444444444,40.060763888888886,0)" xlink:href="#C"/></g><path d="M158 0v-1118h180V0H158zm91-1301c-68 0-125-53-125-119s57-119 125-119c69 0 126 53 126 119s-57 119-126 119" id="I"/><path d="M598-1118v154H368v674c0 100 37 144 132 144 23 0 62-6 92-12L629-6c-37 13-88 20-134 20-193 0-307-107-307-290v-688H20v-154h168v-266h180v266h230" id="J"/><path d="M338-670V0H158v-1490h180v566c73-149 190-208 336-208 226 0 379 139 379 422V0H872v-695c0-172-96-275-252-275-161 0-282 109-282 300" id="K"/><g id="g"><use transform="matrix(0.010850694444444444,0,0,0.010850694444444444,0,0)" xlink:href="#F"/><use transform="matrix(0.010850694444444444,0,0,0.010850694444444444,18.18576388888889,0)" xlink:href="#I"/><use transform="matrix(0.010850694444444444,0,0,0.010850694444444444,23.567708333333336,0)" xlink:href="#J"/><use transform="matrix(0.010850694444444444,0,0,0.010850694444444444,30.837673611111114,0)" xlink:href="#K"/></g><path d="M537 14c-226 0-379-139-379-422v-710h180v695c0 172 97 275 253 275 160 0 281-109 281-300v-670h181V0H879v-209C806-46 684 14 537 14" id="L"/><path d="M613 24c-304 0-509-231-509-576 0-350 205-580 509-580 216 0 392 114 453 309l-173 49c-33-115-133-197-280-197-223 0-326 196-326 419 0 220 103 415 326 415 150 0 252-85 285-206l172 49C1010-95 832 24 613 24" id="M"/><g id="h"><use transform="matrix(0.010850694444444444,0,0,0.010850694444444444,0,0)" xlink:href="#D"/><use transform="matrix(0.010850694444444444,0,0,0.010850694444444444,13.606770833333332,0)" xlink:href="#G"/><use transform="matrix(0.010850694444444444,0,0,0.010850694444444444,21.603732638888886,0)" xlink:href="#E"/><use transform="matrix(0.010850694444444444,0,0,0.010850694444444444,34.928385416666664,0)" xlink:href="#H"/><use transform="matrix(0.010850694444444444,0,0,0.010850694444444444,48.53515625,0)" xlink:href="#L"/><use transform="matrix(0.010850694444444444,0,0,0.010850694444444444,61.67534722222222,0)" xlink:href="#M"/><use transform="matrix(0.010850694444444444,0,0,0.010850694444444444,74.37065972222223,0)" xlink:href="#J"/><use transform="matrix(0.010850694444444444,0,0,0.010850694444444444,81.640625,0)" xlink:href="#I"/><use transform="matrix(0.010850694444444444,0,0,0.010850694444444444,87.02256944444444,0)" xlink:href="#E"/><use transform="matrix(0.010850694444444444,0,0,0.010850694444444444,100.34722222222221,0)" xlink:href="#B"/></g><path d="M471 26C259 26 90-98 90-318c0-256 228-303 435-329 202-27 287-16 287-108 0-139-79-219-234-219-161 0-248 86-283 164l-173-57c86-203 278-265 451-265 150 0 419 46 419 395V0H815v-152h-12C765-73 660 26 471 26zm31-159c199 0 310-134 310-271v-155c-30 35-226 55-295 64-131 17-246 59-246 186 0 116 97 176 231 176" id="N"/><g id="i"><use transform="matrix(0.010850694444444444,0,0,0.010850694444444444,0,0)" xlink:href="#N"/><use transform="matrix(0.010850694444444444,0,0,0.010850694444444444,12.47829861111111,0)" xlink:href="#B"/><use transform="matrix(0.010850694444444444,0,0,0.010850694444444444,25.60763888888889,0)" xlink:href="#H"/></g><path d="M158 0v-1118h175l1 205c55-151 181-225 313-225 147 0 245 90 285 228 53-141 190-228 352-228 194 0 352 125 352 384V0h-181v-749c0-161-105-225-225-225-151 0-243 103-243 244V0H807v-767c0-124-93-207-219-207-131 0-250 92-250 270V0H158" id="O"/><g id="j"><use transform="matrix(0.010850694444444444,0,0,0.010850694444444444,0,0)" xlink:href="#H"/><use transform="matrix(0.010850694444444444,0,0,0.010850694444444444,13.606770833333332,0)" xlink:href="#C"/><use transform="matrix(0.010850694444444444,0,0,0.010850694444444444,26.5625,0)" xlink:href="#O"/><use transform="matrix(0.010850694444444444,0,0,0.010850694444444444,46.02864583333333,0)" xlink:href="#N"/><use transform="matrix(0.010850694444444444,0,0,0.010850694444444444,58.50694444444444,0)" xlink:href="#B"/><use transform="matrix(0.010850694444444444,0,0,0.010850694444444444,71.63628472222221,0)" xlink:href="#H"/></g></defs></g></svg>