<svg xmlns="http://www.w3.org/2000/svg" xmlns:xlink="http://www.w3.org/1999/xlink" xmlns:lucid="lucid" width="941" height="581"><g transform="translate(4480.5 -139.5)" lucid:page-tab-id="0_0"><path d="M-6784-2592h3456v3952h-3456z" fill="#fff"/><path d="M-4480 146a6 6 0 0 1 6-6h928a6 6 0 0 1 6 6v568a6 6 0 0 1-6 6h-928a6 6 0 0 1-6-6z" stroke="#000" fill-opacity="0"/><path d="M-4256.23 267.1a6 6 0 0 1 6-6h115.47a6 6 0 0 1 6 6v62.02a6 6 0 0 1-6 6h-115.47a6 6 0 0 1-6-6z" fill="none"/><use xlink:href="#a" transform="matrix(1,0,0,1,-4251.230203090974,266.1125931647463) translate(0 40.5)"/><path d="M-4191.9 335.94l47.42 66.1" stroke="#000" stroke-width="2" fill="none"/><path d="M-4191.1 335.4l-1.6 1.12-1-1.4h2.4z" stroke="#000" stroke-width=".05"/><path d="M-4135.58 414.45l-12.08-8.9 7.53-5.4z" stroke="#000" stroke-width="2"/><path d="M-4336.23 615.53c0 22.1-17.9 40-40 40s-40-17.9-40-40 17.9-40 40-40 40 17.9 40 40z" stroke="#000" fill="#54c45e"/><use xlink:href="#b" transform="matrix(1,0,0,1,-4411.230203090974,580.5274137331069) translate(11.356336805555557 43.40277777777778)"/><path d="M-4132.82 564.95l32.24-57.9" stroke="#000" stroke-width="2" fill="none"/><path d="M-4140.25 578.3l2.9-14.73 8.1 4.5z" stroke="#000" stroke-width="2"/><path d="M-4099.74 507.56l-1.7-.95.28-.5h.05l1 .1 1.03-.1.16-.03z" stroke="#000" stroke-width=".05"/><path d="M-4197.23 618.1l-120-2.23" stroke="#000" stroke-width="2" fill="none"/><path d="M-4196.23 617.14v1.95l-1.04-.03.03-1.95z" stroke="#000" stroke-width=".05"/><path d="M-4332.5 615.6l14.35-4.38-.17 9.27z" stroke="#000" stroke-width="2"/><path d="M-4196.23 587.1a6 6 0 0 1 6-6h96.8a6 6 0 0 1 6 6v62.02a6 6 0 0 1-6 6h-96.8a6 6 0 0 1-6-6z" fill="none"/><use xlink:href="#c" transform="matrix(1,0,0,1,-4191.230203090973,586.1125931647465) translate(0 40.5)"/><path d="M-4070.5 411.44l93.4 38.5" stroke="#000" stroke-width="2" fill="none"/><path d="M-4070.1 410.55l-.56 1.32-1.83-1.93-.9-.75z" stroke="#000" stroke-width=".05"/><path d="M-3963 455.77l-14.95-1.15 3.54-8.57z" stroke="#000" stroke-width="2"/><path d="M-4410.9 187.1a6 6 0 0 1 6-6h789.8a6 6 0 0 1 6 6v51.8a6 6 0 0 1-6 6h-789.8a6 6 0 0 1-6-6z" fill="none"/><use xlink:href="#d" transform="matrix(1,0,0,1,-4405.914453397339,186.1125931647464) translate(61.4676649305556 35.083767361111114)"/><use xlink:href="#e" transform="matrix(1,0,0,1,-4405.914453397339,186.1125931647464) translate(187.02105034722226 35.083767361111114)"/><use xlink:href="#f" transform="matrix(1,0,0,1,-4405.914453397339,186.1125931647464) translate(242.28363715277783 35.083767361111114)"/><use xlink:href="#g" transform="matrix(1,0,0,1,-4405.914453397339,186.1125931647464) translate(373.9676649305556 35.083767361111114)"/><use xlink:href="#h" transform="matrix(1,0,0,1,-4405.914453397339,186.1125931647464) translate(436.84743923611114 35.083767361111114)"/><use xlink:href="#i" transform="matrix(1,0,0,1,-4405.914453397339,186.1125931647464) translate(487.07530381944446 35.083767361111114)"/><use xlink:href="#j" transform="matrix(1,0,0,1,-4405.914453397339,186.1125931647464) translate(575.3891059027778 35.083767361111114)"/><use xlink:href="#k" transform="matrix(1,0,0,1,-4405.914453397339,186.1125931647464) translate(602.0167100694443 35.083767361111114)"/><use xlink:href="#l" transform="matrix(1,0,0,1,-4405.914453397339,186.1125931647464) translate(673.9025607638889 35.083767361111114)"/><path d="M-3960 426a6 6 0 0 1 6-6h96.8a6 6 0 0 1 6 6v62a6 6 0 0 1-6 6h-96.8a6 6 0 0 1-6-6z" fill="none"/><use xlink:href="#m" transform="matrix(1,0,0,1,-3955,425) translate(0 40.5)"/><path d="M-3820 372a12 12 0 0 1 12-12h196a12 12 0 0 1 12 12v149.05a12 12 0 0 1-12 12h-196a12 12 0 0 1-12-12z" stroke="#dfe3e8" stroke-width="2" fill-opacity="0"/><path d="M-3781.05 442.9v-.14a14.6 14.6 0 0 1 14.6-14.6 14.6 14.6 0 0 1 14.6 14.6 14.6 14.6 0 0 1-14.6 14.6 14.6 14.6 0 0 1-14.6-14.6v-.14" stroke="#000" stroke-opacity=".25" fill="#54c45e"/><path d="M-3781.05 481.86v-.15a14.6 14.6 0 0 1 14.6-14.6 14.6 14.6 0 0 1 14.6 14.6 14.6 14.6 0 0 1-14.6 14.62 14.6 14.6 0 0 1-14.6-14.6v-.15" stroke="#000" stroke-opacity=".25" fill="#6db1ff"/><g><use xlink:href="#n" transform="matrix(1,0,0,1,-3781.0522783003853,389.2107912747111) translate(0 21.5478515625)"/></g><g><use xlink:href="#o" transform="matrix(1,0,0,1,-3737.2360913883185,428.1585129743258) translate(0 20.0927734375)"/></g><g><use xlink:href="#p" transform="matrix(1,0,0,1,-3737.2360913883185,467.10623467394055) translate(0 20.0927734375)"/></g><path d="M-4060.1 439.58c0 22.1-17.9 40-40 40-22.08 0-40-17.9-40-40s17.92-40 40-40c22.1 0 40 17.9 40 40z" stroke="#000" fill="#6db1ff"/><g><use xlink:href="#q" transform="matrix(1,0,0,1,-4135.089509895997,404.5841510684919) translate(12.549913194444446 43.40277777777778)"/></g><g><path d="M-4104.33 488.93a6 6 0 0 0 8.48 0l51.52-51.5a2.48 2.48 0 0 1 4.24 1.74v3a14.48 14.48 0 0 1-4.23 10.25l-51.52 51.5a6 6 0 0 1-8.48 0l-51.52-51.5a14.48 14.48 0 0 1-4.24-10.25v-3a2.48 2.48 0 0 1 4.25-1.75z" stroke="#000" fill="#6db1ff"/></g><defs><path d="M78-106L62-14l39 5-2 9H-2l2-9 28-5 37-208-29-4 1-10h186l-10 57h-12l1-38c-30-4-68-3-103-3l-18 98h78l11-28h11l-13 73h-11v-29H78" id="r"/><path d="M65-14l29 5-1 9H-1l1-9 31-5 36-208-29-4 2-10h94l-1 10-32 4" id="s"/><path d="M65-132c14-36 103-60 96 5-4 40-13 77-19 115l23 4-1 8h-53l22-131c-12-41-64 1-72 20L42 0H13l27-153c-7-4-24 0-20-12h49" id="t"/><path d="M33 77H4l40-227H15l2-9 29-7c8-55 33-100 96-84l-7 34c-18 1-2-34-37-21-16 15-18 46-23 72h37l-2 15H73" id="u"/><path d="M50-12l28 4-1 8H19l42-238-23-4 2-8h52" id="v"/><path d="M103-156c-44 0-59 47-61 96 0 29 9 49 35 49 45 0 62-48 62-96 0-29-11-49-36-49zm66 56C168-39 135 4 75 4 34 4 10-23 11-66c1-61 34-104 94-104 41 0 65 27 64 70" id="w"/><path d="M200-165c14 2 41-6 37 11-14 60-54 105-79 158h-11l-22-109L69 4H57L27-153c-7-3-22 0-17-12h43L76-41l54-106h14l21 107c15-34 37-62 45-102 1-12-16-12-10-23" id="x"/><g id="a"><use transform="matrix(0.1111111111111111,0,0,0.1111111111111111,0,0)" xlink:href="#r"/><use transform="matrix(0.05185185185185186,0,0,0.05185185185185186,24.333333333333332,-7.466666666666668)" xlink:href="#s"/><use transform="matrix(0.05185185185185186,0,0,0.05185185185185186,30.503703703703703,-7.466666666666668)" xlink:href="#t"/><use transform="matrix(0.05185185185185186,0,0,0.05185185185185186,39.837037037037035,-7.466666666666668)" xlink:href="#u"/><use transform="matrix(0.05185185185185186,0,0,0.05185185185185186,45.02222222222222,-7.466666666666668)" xlink:href="#v"/><use transform="matrix(0.05185185185185186,0,0,0.05185185185185186,50.2074074074074,-7.466666666666668)" xlink:href="#w"/><use transform="matrix(0.05185185185185186,0,0,0.05185185185185186,59.54074074074073,-7.466666666666668)" xlink:href="#x"/></g><path d="M180 0v-1490h224l606 953c40 63 108 177 176 312-27-437-7-821-13-1265h190V0h-226C860-448 622-778 356-1262c27 476 11 792 15 1262H180" id="y"/><path d="M784 20c-382 0-662-292-662-764 0-473 280-766 662-766s660 293 660 766c0 472-278 764-660 764zm0-176c266 0 475-207 475-588 0-383-209-590-475-590-268 0-477 208-477 590 0 380 209 588 477 588" id="z"/><path d="M154 0v-137l495-537c165-179 249-281 249-418 0-156-121-253-280-253-170 0-278 110-278 278H158c0-264 200-443 465-443 266 0 455 183 455 416 0 161-73 288-336 568L416-179v12h687V0H154" id="A"/><g id="b"><use transform="matrix(0.010850694444444444,0,0,0.010850694444444444,0,0)" xlink:href="#y"/><use transform="matrix(0.010850694444444444,0,0,0.010850694444444444,16.74262152777778,0)" xlink:href="#z"/><use transform="matrix(0.010850694444444444,0,0,0.010850694444444444,33.73480902777778,0)" xlink:href="#A"/></g><path d="M210-179c0 44-27 62-62 71l40 94 26 5-2 9h-54l-43-103H78L62-14l32 5-2 9H-2l2-9 28-5 37-208-29-4 1-10c74 3 172-17 173 57zm-35 1c0-39-34-45-76-42L81-119c54 3 94-9 94-59" id="B"/><path d="M43-73c-15 62 59 70 91 41l5 7C122-11 100 4 70 4 31 4 11-19 11-58c0-67 42-123 113-109 16 3 26 15 28 33-8 46-58 56-109 61zm78-61c0-37-45-19-57 1-8 14-15 33-20 49 39-4 77-13 77-50" id="C"/><path d="M109-169c21-2 37 13 48 1h9L139-12l20 4-2 8h-50l5-27C96-11 82 4 58 4 25 4 10-20 11-55c2-65 34-107 98-114zM42-60c0 51 54 48 72 17l20-104c-53-30-92 31-92 87" id="D"/><path d="M51-128c6 41 68 31 71 79C125 10 47 12 4-7l8-40h8c-2 25 10 37 34 37 22-1 41-8 39-32-4-43-70-30-70-79 0-52 62-56 106-42l-6 36h-9c2-21-12-29-31-29-19 1-35 9-32 28" id="E"/><g id="c"><use transform="matrix(0.1111111111111111,0,0,0.1111111111111111,0,0)" xlink:href="#r"/><use transform="matrix(0.05185185185185186,0,0,0.05185185185185186,24.333333333333332,-7.466666666666668)" xlink:href="#B"/><use transform="matrix(0.05185185185185186,0,0,0.05185185185185186,35.68888888888889,-7.466666666666668)" xlink:href="#C"/><use transform="matrix(0.05185185185185186,0,0,0.05185185185185186,43.93333333333334,-7.466666666666668)" xlink:href="#v"/><use transform="matrix(0.05185185185185186,0,0,0.05185185185185186,49.11851851851852,-7.466666666666668)" xlink:href="#C"/><use transform="matrix(0.05185185185185186,0,0,0.05185185185185186,57.36296296296297,-7.466666666666668)" xlink:href="#D"/><use transform="matrix(0.05185185185185186,0,0,0.05185185185185186,66.6962962962963,-7.466666666666668)" xlink:href="#E"/><use transform="matrix(0.05185185185185186,0,0,0.05185185185185186,73.95555555555556,-7.466666666666668)" xlink:href="#C"/></g><path d="M783 20c-382 0-661-292-661-764 0-473 279-766 661-766 302 0 548 182 601 489h-190c-42-204-217-313-411-313-268 0-476 208-476 590 0 381 209 588 476 588 195 0 369-110 411-313h190c-52 303-296 489-601 489" id="F"/><path d="M613 24c-304 0-509-231-509-576 0-350 205-580 509-580 305 0 511 230 511 580 0 345-206 576-511 576zm0-161c226 0 329-195 329-415 0-222-103-419-329-419-223 0-326 196-326 419 0 220 103 415 326 415" id="G"/><path d="M338-670V0H158v-1118h173l1 207c72-158 192-221 342-221 226 0 378 139 378 422V0H872v-695c0-172-96-275-252-275-161 0-282 109-282 300" id="H"/><path d="M481 0L54-1118h197c107 314 236 620 325 951 87-331 217-637 324-951h197L670 0H481" id="I"/><path d="M628 24c-324 0-524-230-524-574 0-343 198-582 503-582 237 0 487 146 487 559v75H286c9 234 145 362 343 362 132 0 231-58 273-172l174 48C1024-91 857 24 628 24zM287-650h624c-17-190-120-322-304-322-192 0-309 151-320 322" id="J"/><path d="M158 0v-1118h174v172h12c41-113 157-188 290-188 26 0 70 2 91 3v181c-11-2-60-10-108-10-161 0-279 109-279 260V0H158" id="K"/><path d="M538 24C308 24 148-78 108-271l171-41c32 123 123 178 257 178 156 0 256-77 256-169 0-77-54-128-164-154l-186-44c-203-48-300-148-300-305 0-192 176-326 414-326 230 0 351 112 402 269l-163 42c-31-80-94-158-238-158-133 0-233 69-233 162 0 83 57 129 188 160l169 40c203 48 298 149 298 302 0 196-179 339-441 339" id="L"/><path d="M158 0v-1118h180V0H158zm91-1301c-68 0-125-53-125-119s57-119 125-119c69 0 126 53 126 119s-57 119-126 119" id="M"/><g id="d"><use transform="matrix(0.010850694444444444,0,0,0.010850694444444444,0,0)" xlink:href="#F"/><use transform="matrix(0.010850694444444444,0,0,0.010850694444444444,16.23263888888889,0)" xlink:href="#G"/><use transform="matrix(0.010850694444444444,0,0,0.010850694444444444,29.557291666666664,0)" xlink:href="#H"/><use transform="matrix(0.010850694444444444,0,0,0.010850694444444444,42.36111111111111,0)" xlink:href="#I"/><use transform="matrix(0.010850694444444444,0,0,0.010850694444444444,54.416232638888886,0)" xlink:href="#J"/><use transform="matrix(0.010850694444444444,0,0,0.010850694444444444,67.37196180555556,0)" xlink:href="#K"/><use transform="matrix(0.010850694444444444,0,0,0.010850694444444444,75.73784722222223,0)" xlink:href="#L"/><use transform="matrix(0.010850694444444444,0,0,0.010850694444444444,87.46744791666667,0)" xlink:href="#M"/><use transform="matrix(0.010850694444444444,0,0,0.010850694444444444,92.84939236111111,0)" xlink:href="#G"/><use transform="matrix(0.010850694444444444,0,0,0.010850694444444444,106.17404513888889,0)" xlink:href="#H"/></g><path d="M678-1118v154H420V0H240v-964H20v-154h220v-149c0-194 155-293 318-293 85 0 141 18 168 30l-50 154c-19-6-47-17-97-17-111 0-159 58-159 166v109h258" id="N"/><path d="M158 0v-1118h175l1 205c55-151 181-225 313-225 147 0 245 90 285 228 53-141 190-228 352-228 194 0 352 125 352 384V0h-181v-749c0-161-105-225-225-225-151 0-243 103-243 244V0H807v-767c0-124-93-207-219-207-131 0-250 92-250 270V0H158" id="O"/><g id="e"><use transform="matrix(0.010850694444444444,0,0,0.010850694444444444,0,0)" xlink:href="#N"/><use transform="matrix(0.010850694444444444,0,0,0.010850694444444444,8.22482638888889,0)" xlink:href="#K"/><use transform="matrix(0.010850694444444444,0,0,0.010850694444444444,16.221788194444443,0)" xlink:href="#G"/><use transform="matrix(0.010850694444444444,0,0,0.010850694444444444,29.54644097222222,0)" xlink:href="#O"/></g><path d="M338-670V0H158v-1490h180v566c73-149 190-208 336-208 226 0 379 139 379 422V0H872v-695c0-172-96-275-252-275-161 0-282 109-282 300" id="P"/><path d="M140 405l46-156c120 36 205 19 263-150l32-93L54-1118h197c107 313 237 620 324 950 87-331 219-637 326-950h196L606 167c-68 178-176 259-334 259-64 0-113-12-132-21" id="Q"/><path d="M577 24c-279 0-473-224-473-580 0-354 195-576 474-576 218 0 287 134 324 193h14v-551h180V0H922v-173h-20C865-111 790 24 577 24zm27-161c203 0 314-172 314-421 0-247-108-413-314-413-212 0-317 181-317 413 0 235 108 421 317 421" id="R"/><path d="M158 418v-1536h174v179h20c37-59 106-193 324-193 279 0 474 222 474 576 0 356-194 580-473 580-213 0-288-135-325-197h-14v591H158zm492-555c209 0 317-186 317-421 0-232-105-413-317-413-206 0-314 166-314 413 0 249 111 421 314 421" id="S"/><path d="M409 0L70-1118h191c89 329 165 560 243 925 75-353 154-601 240-925h192c85 325 161 564 235 922 77-354 157-598 244-922h191L1267 0h-179c-86-307-176-590-250-913C763-588 675-308 588 0H409" id="T"/><g id="f"><use transform="matrix(0.010850694444444444,0,0,0.010850694444444444,0,0)" xlink:href="#P"/><use transform="matrix(0.010850694444444444,0,0,0.010850694444444444,12.81467013888889,0)" xlink:href="#Q"/><use transform="matrix(0.010850694444444444,0,0,0.010850694444444444,24.869791666666664,0)" xlink:href="#R"/><use transform="matrix(0.010850694444444444,0,0,0.010850694444444444,38.4765625,0)" xlink:href="#K"/><use transform="matrix(0.010850694444444444,0,0,0.010850694444444444,46.47352430555556,0)" xlink:href="#G"/><use transform="matrix(0.010850694444444444,0,0,0.010850694444444444,59.79817708333333,0)" xlink:href="#S"/><use transform="matrix(0.010850694444444444,0,0,0.010850694444444444,73.40494791666666,0)" xlink:href="#G"/><use transform="matrix(0.010850694444444444,0,0,0.010850694444444444,86.32812499999999,0)" xlink:href="#T"/><use transform="matrix(0.010850694444444444,0,0,0.010850694444444444,104.11241319444441,0)" xlink:href="#J"/><use transform="matrix(0.010850694444444444,0,0,0.010850694444444444,117.0681423611111,0)" xlink:href="#K"/></g><g id="g"><use transform="matrix(0.010850694444444444,0,0,0.010850694444444444,0,0)" xlink:href="#y"/><use transform="matrix(0.010850694444444444,0,0,0.010850694444444444,16.74262152777778,0)" xlink:href="#G"/><use transform="matrix(0.010850694444444444,0,0,0.010850694444444444,30.06727430555556,0)" xlink:href="#R"/><use transform="matrix(0.010850694444444444,0,0,0.010850694444444444,43.674045138888886,0)" xlink:href="#J"/></g><path d="M598-1118v154H368v674c0 100 37 144 132 144 23 0 62-6 92-12L629-6c-37 13-88 20-134 20-193 0-307-107-307-290v-688H20v-154h168v-266h180v266h230" id="U"/><g id="h"><use transform="matrix(0.010850694444444444,0,0,0.010850694444444444,0,0)" xlink:href="#T"/><use transform="matrix(0.010850694444444444,0,0,0.010850694444444444,18.18576388888889,0)" xlink:href="#M"/><use transform="matrix(0.010850694444444444,0,0,0.010850694444444444,23.567708333333336,0)" xlink:href="#U"/><use transform="matrix(0.010850694444444444,0,0,0.010850694444444444,30.837673611111114,0)" xlink:href="#P"/></g><path d="M657 26c-323 0-524-166-541-416h195c15 169 171 246 346 246 202 0 356-106 356-265 5-203-294-238-475-293-239-73-380-191-380-389 0-252 224-419 512-419 294 0 499 171 508 396H992c-17-145-151-228-328-228-193 0-321 102-321 242 0 156 175 211 284 241l149 41c160 44 422 134 422 412 0 244-197 432-541 432" id="V"/><path d="M471 26C259 26 90-98 90-318c0-256 228-303 435-329 202-27 287-16 287-108 0-139-79-219-234-219-161 0-248 86-283 164l-173-57c86-203 278-265 451-265 150 0 419 46 419 395V0H815v-152h-12C765-73 660 26 471 26zm31-159c199 0 310-134 310-271v-155c-30 35-226 55-295 64-131 17-246 59-246 186 0 116 97 176 231 176" id="W"/><path d="M611 442c-248 0-391-105-460-228l146-94c47 65 117 165 314 165 178 0 307-82 307-266v-224h-17C863-141 792-18 576-18c-268 0-472-195-472-546 0-346 197-568 476-568 216 0 288 133 326 193h17v-179h175V29c0 289-215 413-487 413zm-5-620c203 0 314-146 314-390 0-237-108-403-314-403-213 0-319 180-319 403 0 230 109 390 319 390" id="X"/><g id="i"><use transform="matrix(0.010850694444444444,0,0,0.010850694444444444,0,0)" xlink:href="#V"/><use transform="matrix(0.010850694444444444,0,0,0.010850694444444444,14.2578125,0)" xlink:href="#U"/><use transform="matrix(0.010850694444444444,0,0,0.010850694444444444,21.31076388888889,0)" xlink:href="#G"/><use transform="matrix(0.010850694444444444,0,0,0.010850694444444444,34.635416666666664,0)" xlink:href="#K"/><use transform="matrix(0.010850694444444444,0,0,0.010850694444444444,43.00130208333333,0)" xlink:href="#W"/><use transform="matrix(0.010850694444444444,0,0,0.010850694444444444,55.47960069444444,0)" xlink:href="#X"/><use transform="matrix(0.010850694444444444,0,0,0.010850694444444444,69.10807291666666,0)" xlink:href="#J"/></g><g id="j"><use transform="matrix(0.010850694444444444,0,0,0.010850694444444444,0,0)" xlink:href="#U"/><use transform="matrix(0.010850694444444444,0,0,0.010850694444444444,7.052951388888888,0)" xlink:href="#G"/></g><g id="k"><use transform="matrix(0.010850694444444444,0,0,0.010850694444444444,0,0)" xlink:href="#S"/><use transform="matrix(0.010850694444444444,0,0,0.010850694444444444,13.606770833333332,0)" xlink:href="#G"/><use transform="matrix(0.010850694444444444,0,0,0.010850694444444444,26.529947916666664,0)" xlink:href="#T"/><use transform="matrix(0.010850694444444444,0,0,0.010850694444444444,44.314236111111114,0)" xlink:href="#J"/><use transform="matrix(0.010850694444444444,0,0,0.010850694444444444,57.26996527777778,0)" xlink:href="#K"/></g><g id="l"><use transform="matrix(0.010850694444444444,0,0,0.010850694444444444,0,0)" xlink:href="#y"/><use transform="matrix(0.010850694444444444,0,0,0.010850694444444444,16.74262152777778,0)" xlink:href="#G"/><use transform="matrix(0.010850694444444444,0,0,0.010850694444444444,30.06727430555556,0)" xlink:href="#R"/><use transform="matrix(0.010850694444444444,0,0,0.010850694444444444,43.674045138888886,0)" xlink:href="#J"/></g><path d="M165-71C165 10 60 18 4-13l9-52h12v33C53 9 163-15 130-79c-21-40-93-34-95-95-2-67 80-72 139-58l-8 49h-12c-1-18 3-37-16-37-34-11-77 3-72 40 8 57 99 40 99 109" id="Y"/><path d="M169-111C169-36 120 15 41 0L31 64l28 4-2 9h-78l1-9 22-4 38-217c-7-3-22 0-17-12h47l-3 26c16-16 31-31 55-31 33 0 47 25 47 59zm-31 5c0-52-55-47-74-17L45-19c54 29 93-31 93-87" id="Z"/><path d="M51-12l28 4-1 8H20l27-153-23-4 2-8h52zm19-226c28 0 22 38 0 38-10-2-19-7-19-19s7-18 19-19" id="aa"/><g id="m"><use transform="matrix(0.1111111111111111,0,0,0.1111111111111111,0,0)" xlink:href="#r"/><use transform="matrix(0.05185185185185186,0,0,0.05185185185185186,24.333333333333332,-7.466666666666668)" xlink:href="#Y"/><use transform="matrix(0.05185185185185186,0,0,0.05185185185185186,33.666666666666664,-7.466666666666668)" xlink:href="#Z"/><use transform="matrix(0.05185185185185186,0,0,0.05185185185185186,43,-7.466666666666668)" xlink:href="#aa"/><use transform="matrix(0.05185185185185186,0,0,0.05185185185185186,48.18518518518518,-7.466666666666668)" xlink:href="#v"/><use transform="matrix(0.05185185185185186,0,0,0.05185185185185186,53.37037037037036,-7.466666666666668)" xlink:href="#v"/></g><path d="M786 20C389 20 94-260 94-744c0-487 299-766 692-766 339 0 597 194 641 529h-309c-28-162-156-258-326-258-233 0-388 179-388 495 0 323 157 493 387 493 170 0 298-97 328-259h309c-34 277-266 530-642 530" id="ab"/><path d="M628 22C291 22 81-210 81-554c0-346 210-578 547-578 336 0 547 232 547 578 0 344-211 576-547 576zm0-236c160 0 242-146 242-341 0-197-82-341-242-341S387-753 387-555c0 195 81 341 241 341" id="ac"/><path d="M128 0v-1118h278l12 217c60-163 185-234 319-234 143 0 236 81 288 251 63-172 205-251 359-251 205 0 357 138 357 381V0h-301v-697c0-126-76-187-177-187-114 0-184 79-184 196V0H789v-705c0-109-72-179-174-179-106 0-187 74-187 208V0H128" id="ad"/><path d="M537 19C279 19 81-185 81-557c0-382 206-575 454-575 190 0 278 113 318 202h10v-560h300V0H868v-179h-15C812-89 719 19 537 19zm92-241c153 0 240-134 240-336 0-203-86-334-240-334-158 0-240 138-240 334 0 197 84 336 240 336" id="ae"/><path d="M128 0v-1118h300V0H128zm150-1264c-91 0-165-68-165-154 0-85 74-154 165-154 90 0 165 69 165 154 0 86-75 154-165 154" id="af"/><path d="M683-1118v229H474v562c0 71 29 104 102 104 23 0 73-7 95-13l43 225C647 9 580 16 520 16 296 16 174-96 174-301v-588H20v-229h154v-266h300v266h209" id="ag"/><path d="M633 22C291 22 81-200 81-553c0-345 210-579 537-579 292 0 525 185 525 567v84H378c7 183 109 277 260 277 105 0 184-46 216-132l272 51C1071-99 893 22 633 22zM380-669h474c-15-146-94-237-233-237-143 0-229 99-241 237" id="ah"/><path d="M572 22C302 22 117-98 78-306l279-48c29 105 101 156 224 156 114 0 185-48 185-115 0-118-228-130-337-155-215-49-322-150-322-317 0-215 187-347 470-347 265 0 424 116 466 298l-266 47c-24-76-87-130-196-130-98 0-174 46-174 113 0 56 38 95 144 117l201 40c216 44 320 143 320 302 0 220-207 367-500 367" id="ai"/><g id="n"><use transform="matrix(0.0087890625,0,0,0.0087890625,0,0)" xlink:href="#ab"/><use transform="matrix(0.0087890625,0,0,0.0087890625,13.3154296875,0)" xlink:href="#ac"/><use transform="matrix(0.0087890625,0,0,0.0087890625,24.3544921875,0)" xlink:href="#ad"/><use transform="matrix(0.0087890625,0,0,0.0087890625,40.78125,0)" xlink:href="#ad"/><use transform="matrix(0.0087890625,0,0,0.0087890625,57.2080078125,0)" xlink:href="#ac"/><use transform="matrix(0.0087890625,0,0,0.0087890625,68.2470703125,0)" xlink:href="#ae"/><use transform="matrix(0.0087890625,0,0,0.0087890625,79.59375,0)" xlink:href="#af"/><use transform="matrix(0.0087890625,0,0,0.0087890625,84.4716796875,0)" xlink:href="#ag"/><use transform="matrix(0.0087890625,0,0,0.0087890625,91.0634765625,0)" xlink:href="#af"/><use transform="matrix(0.0087890625,0,0,0.0087890625,95.94140625,0)" xlink:href="#ah"/><use transform="matrix(0.0087890625,0,0,0.0087890625,106.6640625,0)" xlink:href="#ai"/></g><path d="M180 0v-1490h510c348 0 508 209 508 474 0 266-160 477-507 477H370V0H180zm190-706h312c236 0 327-133 327-310 0-176-91-307-329-307H370v617" id="aj"/><g id="o"><use transform="matrix(0.0068359375,0,0,0.0068359375,0,0)" xlink:href="#aj"/><use transform="matrix(0.0068359375,0,0,0.0068359375,8.8662109375,0)" xlink:href="#G"/><use transform="matrix(0.0068359375,0,0,0.0068359375,17.0078125,0)" xlink:href="#T"/><use transform="matrix(0.0068359375,0,0,0.0068359375,28.2119140625,0)" xlink:href="#J"/><use transform="matrix(0.0068359375,0,0,0.0068359375,36.3740234375,0)" xlink:href="#K"/></g><path d="M180 0v-1490h190v644h782v-644h190V0h-190v-678H370V0H180" id="ak"/><g id="p"><use transform="matrix(0.0068359375,0,0,0.0068359375,0,0)" xlink:href="#ak"/><use transform="matrix(0.0068359375,0,0,0.0068359375,10.47265625,0)" xlink:href="#Q"/><use transform="matrix(0.0068359375,0,0,0.0068359375,18.0673828125,0)" xlink:href="#R"/><use transform="matrix(0.0068359375,0,0,0.0068359375,26.6396484375,0)" xlink:href="#K"/><use transform="matrix(0.0068359375,0,0,0.0068359375,31.677734375,0)" xlink:href="#G"/></g><g id="q"><use transform="matrix(0.010850694444444444,0,0,0.010850694444444444,0,0)" xlink:href="#ak"/><use transform="matrix(0.010850694444444444,0,0,0.010850694444444444,16.514756944444443,0)" xlink:href="#aj"/><use transform="matrix(0.010850694444444444,0,0,0.010850694444444444,30.707465277777775,0)" xlink:href="#aj"/></g></defs></g></svg>