<svg xmlns="http://www.w3.org/2000/svg" xmlns:xlink="http://www.w3.org/1999/xlink" xmlns:lucid="lucid" width="1571" height="817"><g transform="translate(-107 -151)" lucid:page-tab-id="JLuHm1GZTc-."><path d="M92.74 131.44a8 8 0 0 1 8-8H1608.2a8 8 0 0 1 8 8v13.43a8 8 0 0 1-8 8H100.74a8 8 0 0 1-8-8z" stroke="#000" stroke-opacity="0" stroke-width="2" fill="#fff" fill-opacity="0"/><use xlink:href="#a" transform="matrix(1,0,0,1,96.74193124524925,127.43895093107581) translate(649.5055009917046 16.55488187670383)"/><use xlink:href="#b" transform="matrix(1,0,0,1,96.74193124524925,127.43895093107581) translate(683.3593477411108 16.55488187670383)"/><use xlink:href="#c" transform="matrix(1,0,0,1,96.74193124524925,127.43895093107581) translate(739.7824256567878 16.55488187670383)"/><use xlink:href="#d" transform="matrix(1,0,0,1,96.74193124524925,127.43895093107581) translate(752.4993193716289 16.55488187670383)"/><use xlink:href="#e" transform="matrix(1,0,0,1,96.74193124524925,127.43895093107581) translate(812.351184329874 16.55488187670383)"/><use xlink:href="#f" transform="matrix(1,0,0,1,96.74193124524925,127.43895093107581) translate(838.3926049063402 16.55488187670383)"/><path d="M397.54 567.57a8 8 0 0 1 8-8h460.8a8 8 0 0 1 8 8v242.85a8 8 0 0 1-8 8h-460.8a8 8 0 0 1-8-8z" stroke="#000" stroke-width="2" fill="#6f9cdc" fill-opacity=".6"/><use xlink:href="#g" transform="matrix(1,0,0,1,402.5374494503971,564.5645559416441) translate(140.61985764878904 102.31788970687842)"/><use xlink:href="#h" transform="matrix(1,0,0,1,402.5374494503971,564.5645559416441) translate(47.75026723100524 139.8895784918099)"/><use xlink:href="#i" transform="matrix(1,0,0,1,402.5374494503971,564.5645559416441) translate(107.19911020413835 139.8895784918099)"/><use xlink:href="#j" transform="matrix(1,0,0,1,402.5374494503971,564.5645559416441) translate(187.4066855796546 139.8895784918099)"/><use xlink:href="#k" transform="matrix(1,0,0,1,402.5374494503971,564.5645559416441) translate(239.48952673258725 139.8895784918099)"/><use xlink:href="#l" transform="matrix(1,0,0,1,402.5374494503971,564.5645559416441) translate(388.0744321360251 139.8895784918099)"/><use xlink:href="#m" transform="matrix(1,0,0,1,402.5374494503971,564.5645559416441) translate(118.32251699322897 172.03213188904834)"/><use xlink:href="#n" transform="matrix(1,0,0,1,402.5374494503971,564.5645559416441) translate(177.845764025152 172.03213188904834)"/><path d="M924.8 243.1a8 8 0 0 1 8-8h460.8a8 8 0 0 1 8 8v244.24a8 8 0 0 1-8 8H932.8a8 8 0 0 1-8-8z" stroke="#000" stroke-width="2" fill="#7270ff"/><g><use xlink:href="#o" transform="matrix(1,0,0,1,929.7944442264419,240.09200894353174) translate(129.92955016445396 87.04880339723843)"/><use xlink:href="#p" transform="matrix(1,0,0,1,929.7944442264419,240.09200894353174) translate(168.06163029427964 124.54844902734992)"/><use xlink:href="#q" transform="matrix(1,0,0,1,929.7944442264419,240.09200894353174) translate(242.3912850253935 124.54844902734992)"/><use xlink:href="#r" transform="matrix(1,0,0,1,929.7944442264419,240.09200894353174) translate(84.95229662595713 156.69100242458836)"/><use xlink:href="#s" transform="matrix(1,0,0,1,929.7944442264419,240.09200894353174) translate(123.56800313791719 156.69100242458836)"/><use xlink:href="#t" transform="matrix(1,0,0,1,929.7944442264419,240.09200894353174) translate(206.67733680623968 156.69100242458836)"/><use xlink:href="#u" transform="matrix(1,0,0,1,929.7944442264419,240.09200894353174) translate(231.97471679480697 156.69100242458836)"/><use xlink:href="#v" transform="matrix(1,0,0,1,929.7944442264419,240.09200894353174) translate(309.280533877517 156.69100242458836)"/><use xlink:href="#w" transform="matrix(1,0,0,1,929.7944442264419,240.09200894353174) translate(233.5 188.8335558218268)"/></g><path d="M397.54 242.6a8 8 0 0 1 8-8h460.8a8 8 0 0 1 8 8v244.74a8 8 0 0 1-8 8h-460.8a8 8 0 0 1-8-8z" stroke="#000" stroke-width="2" fill="#6f9cdc" fill-opacity=".6"/><g><use xlink:href="#x" transform="matrix(1,0,0,1,402.5374494503971,239.5866996361963) translate(141.79697472143565 102.88038970687842)"/><use xlink:href="#y" transform="matrix(1,0,0,1,402.5374494503971,239.5866996361963) translate(10.511035806658413 140.4520784918099)"/><use xlink:href="#z" transform="matrix(1,0,0,1,402.5374494503971,239.5866996361963) translate(159.09594121009624 140.4520784918099)"/><use xlink:href="#A" transform="matrix(1,0,0,1,402.5374494503971,239.5866996361963) translate(197.71164772205628 140.4520784918099)"/><use xlink:href="#B" transform="matrix(1,0,0,1,402.5374494503971,239.5866996361963) translate(294.28811603135136 140.4520784918099)"/><use xlink:href="#C" transform="matrix(1,0,0,1,402.5374494503971,239.5866996361963) translate(411.8465289193993 140.4520784918099)"/><use xlink:href="#D" transform="matrix(1,0,0,1,402.5374494503971,239.5866996361963) translate(72.19200054348863 172.59463188904834)"/><use xlink:href="#E" transform="matrix(1,0,0,1,402.5374494503971,239.5866996361963) translate(173.30711643896785 172.59463188904834)"/><use xlink:href="#F" transform="matrix(1,0,0,1,402.5374494503971,239.5866996361963) translate(232.83036347089086 172.59463188904834)"/><use xlink:href="#G" transform="matrix(1,0,0,1,402.5374494503971,239.5866996361963) translate(262.59198698685236 172.59463188904834)"/><use xlink:href="#H" transform="matrix(1,0,0,1,402.5374494503971,239.5866996361963) translate(322.04082995998544 172.59463188904834)"/></g><path d="M924.8 566.17a8 8 0 0 1 8-8h460.8a8 8 0 0 1 8 8v244.25a8 8 0 0 1-8 8H932.8a8 8 0 0 1-8-8z" stroke="#000" stroke-width="2" fill="#6f9cdc" fill-opacity=".6"/><g><use xlink:href="#I" transform="matrix(1,0,0,1,929.7944442264419,563.1705645243625) translate(137.6861732933014 118.42380339723843)"/><use xlink:href="#J" transform="matrix(1,0,0,1,929.7944442264419,563.1705645243625) translate(114.60231405373378 155.92344902734993)"/><use xlink:href="#z" transform="matrix(1,0,0,1,929.7944442264419,563.1705645243625) translate(165.19707403086835 155.92344902734993)"/><use xlink:href="#K" transform="matrix(1,0,0,1,929.7944442264419,563.1705645243625) translate(203.8127805428284 155.92344902734993)"/><use xlink:href="#L" transform="matrix(1,0,0,1,929.7944442264419,563.1705645243625) translate(281.1185976255384 155.92344902734993)"/></g><defs><path fill="#a9afb8" d="M30 0v-248h33v221h125V0H30" id="M"/><path fill="#a9afb8" d="M141-36C126-15 110 5 73 4 37 3 15-17 15-53c-1-64 63-63 125-63 3-35-9-54-41-54-24 1-41 7-42 31l-33-3c5-37 33-52 76-52 45 0 72 20 72 64v82c-1 20 7 32 28 27v20c-31 9-61-2-59-35zM48-53c0 20 12 33 32 33 41-3 63-29 60-74-43 2-92-5-92 41" id="N"/><path fill="#a9afb8" d="M135-143c-3-34-86-38-87 0 15 53 115 12 119 90S17 21 10-45l28-5c4 36 97 45 98 0-10-56-113-15-118-90-4-57 82-63 122-42 12 7 21 19 24 35" id="O"/><path fill="#a9afb8" d="M59-47c-2 24 18 29 38 22v24C64 9 27 4 27-40v-127H5v-23h24l9-43h21v43h35v23H59v120" id="P"/><g id="a"><use transform="matrix(0.043402367627443865,0,0,0.043402367627443865,0,0)" xlink:href="#M"/><use transform="matrix(0.043402367627443865,0,0,0.043402367627443865,8.680473525488773,0)" xlink:href="#N"/><use transform="matrix(0.043402367627443865,0,0,0.043402367627443865,17.360947050977547,0)" xlink:href="#O"/><use transform="matrix(0.043402367627443865,0,0,0.043402367627443865,25.173373223917448,0)" xlink:href="#P"/></g><path fill="#a9afb8" d="M84 4C-5 8 30-112 23-190h32v120c0 31 7 50 39 49 72-2 45-101 50-169h31l1 190h-30c-1-10 1-25-2-33-11 22-28 36-60 37" id="Q"/><path fill="#a9afb8" d="M115-194c55 1 70 41 70 98S169 2 115 4C84 4 66-9 55-30l1 105H24l-1-265h31l2 30c10-21 28-34 59-34zm-8 174c40 0 45-34 45-75s-6-73-45-74c-42 0-51 32-51 76 0 43 10 73 51 73" id="R"/><path fill="#a9afb8" d="M85-194c31 0 48 13 60 33l-1-100h32l1 261h-30c-2-10 0-23-3-31C134-8 116 4 85 4 32 4 16-35 15-94c0-66 23-100 70-100zm9 24c-40 0-46 34-46 75 0 40 6 74 45 74 42 0 51-32 51-76 0-42-9-74-50-73" id="S"/><path fill="#a9afb8" d="M100-194c63 0 86 42 84 106H49c0 40 14 67 53 68 26 1 43-12 49-29l28 8c-11 28-37 45-77 45C44 4 14-33 15-96c1-61 26-98 85-98zm52 81c6-60-76-77-97-28-3 7-6 17-6 28h103" id="T"/><g id="b"><use transform="matrix(0.043402367627443865,0,0,0.043402367627443865,0,0)" xlink:href="#Q"/><use transform="matrix(0.043402367627443865,0,0,0.043402367627443865,8.680473525488773,0)" xlink:href="#R"/><use transform="matrix(0.043402367627443865,0,0,0.043402367627443865,17.360947050977547,0)" xlink:href="#S"/><use transform="matrix(0.043402367627443865,0,0,0.043402367627443865,26.041420576466322,0)" xlink:href="#N"/><use transform="matrix(0.043402367627443865,0,0,0.043402367627443865,34.721894101955094,0)" xlink:href="#P"/><use transform="matrix(0.043402367627443865,0,0,0.043402367627443865,39.06213086469948,0)" xlink:href="#T"/></g><path fill="#a9afb8" d="M32 76v-337h29V76H32" id="U"/><use transform="matrix(0.043402367627443865,0,0,0.043402367627443865,0,0)" xlink:href="#U" id="c"/><path fill="#a9afb8" d="M140-251c81 0 123 46 123 126C263-46 219 4 140 4 59 4 17-45 17-125s42-126 123-126zm0 227c63 0 89-41 89-101s-29-99-89-99c-61 0-89 39-89 99S79-25 140-24" id="V"/><path fill="#a9afb8" d="M96-169c-40 0-48 33-48 73s9 75 48 75c24 0 41-14 43-38l32 2c-6 37-31 61-74 61-59 0-76-41-82-99-10-93 101-131 147-64 4 7 5 14 7 22l-32 3c-4-21-16-35-41-35" id="W"/><path fill="#a9afb8" d="M100-194c62-1 85 37 85 99 1 63-27 99-86 99S16-35 15-95c0-66 28-99 85-99zM99-20c44 1 53-31 53-75 0-43-8-75-51-75s-53 32-53 75 10 74 51 75" id="X"/><path fill="#a9afb8" d="M115-194c53 0 69 39 70 98 0 66-23 100-70 100C84 3 66-7 56-30L54 0H23l1-261h32v101c10-23 28-34 59-34zm-8 174c40 0 45-34 45-75 0-40-5-75-45-74-42 0-51 32-51 76 0 43 10 73 51 73" id="Y"/><path fill="#a9afb8" d="M114-163C36-179 61-72 57 0H25l-1-190h30c1 12-1 29 2 39 6-27 23-49 58-41v29" id="Z"/><g id="d"><use transform="matrix(0.043402367627443865,0,0,0.043402367627443865,0,0)" xlink:href="#V"/><use transform="matrix(0.043402367627443865,0,0,0.043402367627443865,12.152662935684281,0)" xlink:href="#W"/><use transform="matrix(0.043402367627443865,0,0,0.043402367627443865,19.965089108624177,0)" xlink:href="#P"/><use transform="matrix(0.043402367627443865,0,0,0.043402367627443865,24.305325871368563,0)" xlink:href="#X"/><use transform="matrix(0.043402367627443865,0,0,0.043402367627443865,32.98579939685734,0)" xlink:href="#Y"/><use transform="matrix(0.043402367627443865,0,0,0.043402367627443865,41.66627292234611,0)" xlink:href="#T"/><use transform="matrix(0.043402367627443865,0,0,0.043402367627443865,50.34674644783488,0)" xlink:href="#Z"/></g><path fill="#a9afb8" d="M27 0v-27h64v-190l-56 39v-29l58-41h29v221h61V0H27" id="aa"/><path fill="#a9afb8" d="M54-142c48-35 137-8 131 61C196 18 31 33 14-55l32-4c7 23 22 37 52 37 35-1 51-22 54-58 4-55-73-65-99-34H22l8-134h141v27H59" id="ab"/><path fill="#a9afb8" d="M68-38c1 34 0 65-14 84H32c9-13 17-26 17-46H33v-38h35" id="ac"/><g id="e"><use transform="matrix(0.043402367627443865,0,0,0.043402367627443865,0,0)" xlink:href="#aa"/><use transform="matrix(0.043402367627443865,0,0,0.043402367627443865,8.680473525488773,0)" xlink:href="#ab"/><use transform="matrix(0.043402367627443865,0,0,0.043402367627443865,17.360947050977547,0)" xlink:href="#ac"/></g><path fill="#a9afb8" d="M101-251c82-7 93 87 43 132L82-64C71-53 59-42 53-27h129V0H18c2-99 128-94 128-182 0-28-16-43-45-43s-46 15-49 41l-32-3c6-41 34-60 81-64" id="ad"/><path fill="#a9afb8" d="M101-251c68 0 85 55 85 127S166 4 100 4C33 4 14-52 14-124c0-73 17-127 87-127zm-1 229c47 0 54-49 54-102s-4-102-53-102c-51 0-55 48-55 102 0 53 5 102 54 102" id="ae"/><g id="f"><use transform="matrix(0.043402367627443865,0,0,0.043402367627443865,0,0)" xlink:href="#ad"/><use transform="matrix(0.043402367627443865,0,0,0.043402367627443865,8.680473525488773,0)" xlink:href="#ae"/><use transform="matrix(0.043402367627443865,0,0,0.043402367627443865,17.360947050977547,0)" xlink:href="#ad"/><use transform="matrix(0.043402367627443865,0,0,0.043402367627443865,26.041420576466322,0)" xlink:href="#ab"/></g><path fill="#212529" d="M121-226c-27-7-43 5-38 36h38v33H83V0H34v-157H6v-33h28c-9-59 32-81 87-68v32" id="af"/><path fill="#212529" d="M135-150c-39-12-60 13-60 57V0H25l-1-190h47c2 13-1 29 3 40 6-28 27-53 61-41v41" id="ag"/><path fill="#212529" d="M133-34C117-15 103 5 69 4 32 3 11-16 11-54c-1-60 55-63 116-61 1-26-3-47-28-47-18 1-26 9-28 27l-52-2c7-38 36-58 82-57s74 22 75 68l1 82c-1 14 12 18 25 15v27c-30 8-71 5-69-32zm-48 3c29 0 43-24 42-57-32 0-66-3-65 30 0 17 8 27 23 27" id="ah"/><path fill="#212529" d="M220-157c-53 9-28 100-34 157h-49v-107c1-27-5-49-29-50C55-147 81-57 75 0H25l-1-190h47c2 12-1 28 3 38 10-53 101-56 108 0 13-22 24-43 59-42 82 1 51 116 57 194h-49v-107c-1-25-5-48-29-50" id="ai"/><path fill="#212529" d="M14-72v-43h91v43H14" id="aj"/><path fill="#212529" d="M190-63c-7 42-38 67-86 67-59 0-84-38-90-98-12-110 154-137 174-36l-49 2c-2-19-15-32-35-32-30 0-35 28-38 64-6 74 65 87 74 30" id="ak"/><path fill="#212529" d="M110-194c64 0 96 36 96 99 0 64-35 99-97 99-61 0-95-36-95-99 0-62 34-99 96-99zm-1 164c35 0 45-28 45-65 0-40-10-65-43-65-34 0-45 26-45 65 0 36 10 65 43 65" id="al"/><path fill="#212529" d="M185-48c-13 30-37 53-82 52C43 2 14-33 14-96s30-98 90-98c62 0 83 45 84 108H66c0 31 8 55 39 56 18 0 30-7 34-22zm-45-69c5-46-57-63-70-21-2 6-4 13-4 21h74" id="am"/><g id="g"><use transform="matrix(0.11210638787110558,0,0,0.11210638787110558,0,0)" xlink:href="#af"/><use transform="matrix(0.11210638787110558,0,0,0.11210638787110558,13.340660156661563,0)" xlink:href="#ag"/><use transform="matrix(0.11210638787110558,0,0,0.11210638787110558,29.035554458616346,0)" xlink:href="#ah"/><use transform="matrix(0.11210638787110558,0,0,0.11210638787110558,51.45683203283746,0)" xlink:href="#ai"/><use transform="matrix(0.11210638787110558,0,0,0.11210638787110558,87.33087615159124,0)" xlink:href="#aj"/><use transform="matrix(0.11210638787110558,0,0,0.11210638787110558,100.6715363082528,0)" xlink:href="#ak"/><use transform="matrix(0.11210638787110558,0,0,0.11210638787110558,123.0928138824739,0)" xlink:href="#al"/><use transform="matrix(0.11210638787110558,0,0,0.11210638787110558,147.64411282624602,0)" xlink:href="#ag"/><use transform="matrix(0.11210638787110558,0,0,0.11210638787110558,163.3390071282008,0)" xlink:href="#am"/></g><path fill="#212529" d="M96-169c-40 0-48 33-48 73s9 75 48 75c24 0 41-14 43-38l32 2c-6 37-31 61-74 61-59 0-76-41-82-99-10-93 101-131 147-64 4 7 5 14 7 22l-32 3c-4-21-16-35-41-35" id="an"/><path fill="#212529" d="M100-194c62-1 85 37 85 99 1 63-27 99-86 99S16-35 15-95c0-66 28-99 85-99zM99-20c44 1 53-31 53-75 0-43-8-75-51-75s-53 32-53 75 10 74 51 75" id="ao"/><path fill="#212529" d="M114-163C36-179 61-72 57 0H25l-1-190h30c1 12-1 29 2 39 6-27 23-49 58-41v29" id="ap"/><path fill="#212529" d="M100-194c63 0 86 42 84 106H49c0 40 14 67 53 68 26 1 43-12 49-29l28 8c-11 28-37 45-77 45C44 4 14-33 15-96c1-61 26-98 85-98zm52 81c6-60-76-77-97-28-3 7-6 17-6 28h103" id="aq"/><g id="h"><use transform="matrix(0.07440405878990376,0,0,0.07440405878990376,0,0)" xlink:href="#an"/><use transform="matrix(0.07440405878990376,0,0,0.07440405878990376,13.392730582182677,0)" xlink:href="#ao"/><use transform="matrix(0.07440405878990376,0,0,0.07440405878990376,28.27354234016343,0)" xlink:href="#ap"/><use transform="matrix(0.07440405878990376,0,0,0.07440405878990376,37.12762533616198,0)" xlink:href="#aq"/></g><path fill="#212529" d="M210-169c-67 3-38 105-44 169h-31v-121c0-29-5-50-35-48C34-165 62-65 56 0H25l-1-190h30c1 10-1 24 2 32 10-44 99-50 107 0 11-21 27-35 58-36 85-2 47 119 55 194h-31v-121c0-29-5-49-35-48" id="ar"/><path fill="#212529" d="M85-194c31 0 48 13 60 33l-1-100h32l1 261h-30c-2-10 0-23-3-31C134-8 116 4 85 4 32 4 16-35 15-94c0-66 23-100 70-100zm9 24c-40 0-46 34-46 75 0 40 6 74 45 74 42 0 51-32 51-76 0-42-9-74-50-73" id="as"/><path fill="#212529" d="M24 0v-261h32V0H24" id="at"/><g id="i"><use transform="matrix(0.07440405878990376,0,0,0.07440405878990376,0,0)" xlink:href="#ar"/><use transform="matrix(0.07440405878990376,0,0,0.07440405878990376,22.246813578181225,0)" xlink:href="#ao"/><use transform="matrix(0.07440405878990376,0,0,0.07440405878990376,37.12762533616198,0)" xlink:href="#as"/><use transform="matrix(0.07440405878990376,0,0,0.07440405878990376,52.00843709414273,0)" xlink:href="#aq"/><use transform="matrix(0.07440405878990376,0,0,0.07440405878990376,66.88924885212349,0)" xlink:href="#at"/></g><path fill="#212529" d="M141-36C126-15 110 5 73 4 37 3 15-17 15-53c-1-64 63-63 125-63 3-35-9-54-41-54-24 1-41 7-42 31l-33-3c5-37 33-52 76-52 45 0 72 20 72 64v82c-1 20 7 32 28 27v20c-31 9-61-2-59-35zM48-53c0 20 12 33 32 33 41-3 63-29 60-74-43 2-92-5-92 41" id="au"/><path fill="#212529" d="M117-194c89-4 53 116 60 194h-32v-121c0-31-8-49-39-48C34-167 62-67 57 0H25l-1-190h30c1 10-1 24 2 32 11-22 29-35 61-36" id="av"/><g id="j"><use transform="matrix(0.07440405878990376,0,0,0.07440405878990376,0,0)" xlink:href="#au"/><use transform="matrix(0.07440405878990376,0,0,0.07440405878990376,14.880811757980753,0)" xlink:href="#av"/><use transform="matrix(0.07440405878990376,0,0,0.07440405878990376,29.761623515961507,0)" xlink:href="#as"/></g><path fill="#212529" d="M101-234c-31-9-42 10-38 44h38v23H63V0H32v-167H5v-23h27c-7-52 17-82 69-68v24" id="aw"/><path fill="#212529" d="M84 4C-5 8 30-112 23-190h32v120c0 31 7 50 39 49 72-2 45-101 50-169h31l1 190h-30c-1-10 1-25-2-33-11 22-28 36-60 37" id="ax"/><path fill="#212529" d="M59-47c-2 24 18 29 38 22v24C64 9 27 4 27-40v-127H5v-23h24l9-43h21v43h35v23H59v120" id="ay"/><path fill="#212529" d="M24-231v-30h32v30H24zM24 0v-190h32V0H24" id="az"/><path fill="#212529" d="M179-190L93 31C79 59 56 82 12 73V49c39 6 53-20 64-50L1-190h34L92-34l54-156h33" id="aA"/><g id="k"><use transform="matrix(0.07440405878990376,0,0,0.07440405878990376,0,0)" xlink:href="#aw"/><use transform="matrix(0.07440405878990376,0,0,0.07440405878990376,7.440405878990377,0)" xlink:href="#ax"/><use transform="matrix(0.07440405878990376,0,0,0.07440405878990376,22.321217636971127,0)" xlink:href="#av"/><use transform="matrix(0.07440405878990376,0,0,0.07440405878990376,37.202029394951886,0)" xlink:href="#an"/><use transform="matrix(0.07440405878990376,0,0,0.07440405878990376,50.594759977134565,0)" xlink:href="#ay"/><use transform="matrix(0.07440405878990376,0,0,0.07440405878990376,58.03516585612494,0)" xlink:href="#az"/><use transform="matrix(0.07440405878990376,0,0,0.07440405878990376,63.913086500527335,0)" xlink:href="#ao"/><use transform="matrix(0.07440405878990376,0,0,0.07440405878990376,78.79389825850811,0)" xlink:href="#av"/><use transform="matrix(0.07440405878990376,0,0,0.07440405878990376,93.67471001648883,0)" xlink:href="#au"/><use transform="matrix(0.07440405878990376,0,0,0.07440405878990376,108.5555217744696,0)" xlink:href="#at"/><use transform="matrix(0.07440405878990376,0,0,0.07440405878990376,114.43344241887199,0)" xlink:href="#az"/><use transform="matrix(0.07440405878990376,0,0,0.07440405878990376,120.31136306327438,0)" xlink:href="#ay"/><use transform="matrix(0.07440405878990376,0,0,0.07440405878990376,127.75176894226476,0)" xlink:href="#aA"/></g><g id="l"><use transform="matrix(0.07440405878990376,0,0,0.07440405878990376,0,0)" xlink:href="#aw"/><use transform="matrix(0.07440405878990376,0,0,0.07440405878990376,7.440405878990377,0)" xlink:href="#ao"/><use transform="matrix(0.07440405878990376,0,0,0.07440405878990376,22.321217636971127,0)" xlink:href="#ap"/></g><g id="m"><use transform="matrix(0.07440405878990376,0,0,0.07440405878990376,0,0)" xlink:href="#as"/><use transform="matrix(0.07440405878990376,0,0,0.07440405878990376,14.880811757980753,0)" xlink:href="#au"/><use transform="matrix(0.07440405878990376,0,0,0.07440405878990376,29.761623515961507,0)" xlink:href="#ay"/><use transform="matrix(0.07440405878990376,0,0,0.07440405878990376,37.202029394951886,0)" xlink:href="#au"/></g><path fill="#212529" d="M135-143c-3-34-86-38-87 0 15 53 115 12 119 90S17 21 10-45l28-5c4 36 97 45 98 0-10-56-113-15-118-90-4-57 82-63 122-42 12 7 21 19 24 35" id="aB"/><g id="n"><use transform="matrix(0.07440405878990376,0,0,0.07440405878990376,0,0)" xlink:href="#ay"/><use transform="matrix(0.07440405878990376,0,0,0.07440405878990376,7.440405878990377,0)" xlink:href="#ap"/><use transform="matrix(0.07440405878990376,0,0,0.07440405878990376,16.294488874988925,0)" xlink:href="#au"/><use transform="matrix(0.07440405878990376,0,0,0.07440405878990376,31.17530063296968,0)" xlink:href="#av"/><use transform="matrix(0.07440405878990376,0,0,0.07440405878990376,46.05611239095043,0)" xlink:href="#aB"/><use transform="matrix(0.07440405878990376,0,0,0.07440405878990376,59.44884297313312,0)" xlink:href="#aw"/><use transform="matrix(0.07440405878990376,0,0,0.07440405878990376,66.88924885212349,0)" xlink:href="#ao"/><use transform="matrix(0.07440405878990376,0,0,0.07440405878990376,81.77006061010424,0)" xlink:href="#ap"/><use transform="matrix(0.07440405878990376,0,0,0.07440405878990376,90.62414360610278,0)" xlink:href="#ar"/><use transform="matrix(0.07440405878990376,0,0,0.07440405878990376,112.87095718428401,0)" xlink:href="#au"/><use transform="matrix(0.07440405878990376,0,0,0.07440405878990376,127.75176894226476,0)" xlink:href="#ay"/><use transform="matrix(0.07440405878990376,0,0,0.07440405878990376,135.19217482125515,0)" xlink:href="#az"/><use transform="matrix(0.07440405878990376,0,0,0.07440405878990376,141.07009546565754,0)" xlink:href="#ao"/><use transform="matrix(0.07440405878990376,0,0,0.07440405878990376,155.9509072236383,0)" xlink:href="#av"/></g><path fill="#fff" d="M121-226c-27-7-43 5-38 36h38v33H83V0H34v-157H6v-33h28c-9-59 32-81 87-68v32" id="aC"/><path fill="#fff" d="M135-150c-39-12-60 13-60 57V0H25l-1-190h47c2 13-1 29 3 40 6-28 27-53 61-41v41" id="aD"/><path fill="#fff" d="M133-34C117-15 103 5 69 4 32 3 11-16 11-54c-1-60 55-63 116-61 1-26-3-47-28-47-18 1-26 9-28 27l-52-2c7-38 36-58 82-57s74 22 75 68l1 82c-1 14 12 18 25 15v27c-30 8-71 5-69-32zm-48 3c29 0 43-24 42-57-32 0-66-3-65 30 0 17 8 27 23 27" id="aE"/><path fill="#fff" d="M220-157c-53 9-28 100-34 157h-49v-107c1-27-5-49-29-50C55-147 81-57 75 0H25l-1-190h47c2 12-1 28 3 38 10-53 101-56 108 0 13-22 24-43 59-42 82 1 51 116 57 194h-49v-107c-1-25-5-48-29-50" id="aF"/><path fill="#fff" d="M14-72v-43h91v43H14" id="aG"/><path fill="#fff" d="M88-194c31-1 46 15 58 34l-1-101h50l1 261h-48c-2-10 0-23-3-31C134-8 116 4 84 4 32 4 16-41 15-95c0-56 19-97 73-99zm17 164c33 0 40-30 41-66 1-37-9-64-41-64s-38 30-39 65c0 43 13 65 39 65" id="aH"/><path fill="#fff" d="M185-48c-13 30-37 53-82 52C43 2 14-33 14-96s30-98 90-98c62 0 83 45 84 108H66c0 31 8 55 39 56 18 0 30-7 34-22zm-45-69c5-46-57-63-70-21-2 6-4 13-4 21h74" id="aI"/><path fill="#fff" d="M110-194c64 0 96 36 96 99 0 64-35 99-97 99-61 0-95-36-95-99 0-62 34-99 96-99zm-1 164c35 0 45-28 45-65 0-40-10-65-43-65-34 0-45 26-45 65 0 36 10 65 43 65" id="aJ"/><g id="o"><use transform="matrix(0.11160608818485564,0,0,0.11160608818485564,0,0)" xlink:href="#aC"/><use transform="matrix(0.11160608818485564,0,0,0.11160608818485564,13.28112449399782,0)" xlink:href="#aD"/><use transform="matrix(0.11160608818485564,0,0,0.11160608818485564,28.90597683987761,0)" xlink:href="#aE"/><use transform="matrix(0.11160608818485564,0,0,0.11160608818485564,51.22719447684874,0)" xlink:href="#aF"/><use transform="matrix(0.11160608818485564,0,0,0.11160608818485564,86.94114269600254,0)" xlink:href="#aG"/><use transform="matrix(0.11160608818485564,0,0,0.11160608818485564,100.22226719000037,0)" xlink:href="#aH"/><use transform="matrix(0.11160608818485564,0,0,0.11160608818485564,124.66400050248377,0)" xlink:href="#aI"/><use transform="matrix(0.11160608818485564,0,0,0.11160608818485564,146.9852181394549,0)" xlink:href="#aF"/><use transform="matrix(0.11160608818485564,0,0,0.11160608818485564,182.6991663586087,0)" xlink:href="#aJ"/></g><path fill="#fff" d="M85-194c31 0 48 13 60 33l-1-100h32l1 261h-30c-2-10 0-23-3-31C134-8 116 4 85 4 32 4 16-35 15-94c0-66 23-100 70-100zm9 24c-40 0-46 34-46 75 0 40 6 74 45 74 42 0 51-32 51-76 0-42-9-74-50-73" id="aK"/><path fill="#fff" d="M100-194c63 0 86 42 84 106H49c0 40 14 67 53 68 26 1 43-12 49-29l28 8c-11 28-37 45-77 45C44 4 14-33 15-96c1-61 26-98 85-98zm52 81c6-60-76-77-97-28-3 7-6 17-6 28h103" id="aL"/><path fill="#fff" d="M210-169c-67 3-38 105-44 169h-31v-121c0-29-5-50-35-48C34-165 62-65 56 0H25l-1-190h30c1 10-1 24 2 32 10-44 99-50 107 0 11-21 27-35 58-36 85-2 47 119 55 194h-31v-121c0-29-5-49-35-48" id="aM"/><path fill="#fff" d="M100-194c62-1 85 37 85 99 1 63-27 99-86 99S16-35 15-95c0-66 28-99 85-99zM99-20c44 1 53-31 53-75 0-43-8-75-51-75s-53 32-53 75 10 74 51 75" id="aN"/><g id="p"><use transform="matrix(0.07440405878990376,0,0,0.07440405878990376,0,0)" xlink:href="#aK"/><use transform="matrix(0.07440405878990376,0,0,0.07440405878990376,14.880811757980753,0)" xlink:href="#aL"/><use transform="matrix(0.07440405878990376,0,0,0.07440405878990376,29.761623515961507,0)" xlink:href="#aM"/><use transform="matrix(0.07440405878990376,0,0,0.07440405878990376,52.008437094142735,0)" xlink:href="#aN"/></g><path fill="#fff" d="M96-169c-40 0-48 33-48 73s9 75 48 75c24 0 41-14 43-38l32 2c-6 37-31 61-74 61-59 0-76-41-82-99-10-93 101-131 147-64 4 7 5 14 7 22l-32 3c-4-21-16-35-41-35" id="aO"/><path fill="#fff" d="M141-36C126-15 110 5 73 4 37 3 15-17 15-53c-1-64 63-63 125-63 3-35-9-54-41-54-24 1-41 7-42 31l-33-3c5-37 33-52 76-52 45 0 72 20 72 64v82c-1 20 7 32 28 27v20c-31 9-61-2-59-35zM48-53c0 20 12 33 32 33 41-3 63-29 60-74-43 2-92-5-92 41" id="aP"/><path fill="#fff" d="M135-143c-3-34-86-38-87 0 15 53 115 12 119 90S17 21 10-45l28-5c4 36 97 45 98 0-10-56-113-15-118-90-4-57 82-63 122-42 12 7 21 19 24 35" id="aQ"/><g id="q"><use transform="matrix(0.07440405878990376,0,0,0.07440405878990376,0,0)" xlink:href="#aO"/><use transform="matrix(0.07440405878990376,0,0,0.07440405878990376,13.392730582182677,0)" xlink:href="#aP"/><use transform="matrix(0.07440405878990376,0,0,0.07440405878990376,28.27354234016343,0)" xlink:href="#aQ"/><use transform="matrix(0.07440405878990376,0,0,0.07440405878990376,41.66627292234611,0)" xlink:href="#aL"/></g><path fill="#fff" d="M101-234c-31-9-42 10-38 44h38v23H63V0H32v-167H5v-23h27c-7-52 17-82 69-68v24" id="aR"/><path fill="#fff" d="M114-163C36-179 61-72 57 0H25l-1-190h30c1 12-1 29 2 39 6-27 23-49 58-41v29" id="aS"/><g id="r"><use transform="matrix(0.07440405878990376,0,0,0.07440405878990376,0,0)" xlink:href="#aR"/><use transform="matrix(0.07440405878990376,0,0,0.07440405878990376,7.440405878990377,0)" xlink:href="#aN"/><use transform="matrix(0.07440405878990376,0,0,0.07440405878990376,22.321217636971127,0)" xlink:href="#aS"/></g><path fill="#fff" d="M63-220v92h138v28H63V0H30v-248h175v28H63" id="aT"/><path fill="#fff" d="M233-177c-1 41-23 64-60 70L243 0h-38l-65-103H63V0H30v-248c88 3 205-21 203 71zM63-129c60-2 137 13 137-47 0-61-80-42-137-45v92" id="aU"/><path fill="#fff" d="M205 0l-28-72H64L36 0H1l101-248h38L239 0h-34zm-38-99l-47-123c-12 45-31 82-46 123h93" id="aV"/><path fill="#fff" d="M240 0l2-218c-23 76-54 145-80 218h-23L58-218 59 0H30v-248h44l77 211c21-75 51-140 76-211h43V0h-30" id="aW"/><g id="s"><use transform="matrix(0.07440405878990376,0,0,0.07440405878990376,0,0)" xlink:href="#aT"/><use transform="matrix(0.07440405878990376,0,0,0.07440405878990376,16.294488874988925,0)" xlink:href="#aU"/><use transform="matrix(0.07440405878990376,0,0,0.07440405878990376,35.565140101574,0)" xlink:href="#aV"/><use transform="matrix(0.07440405878990376,0,0,0.07440405878990376,53.4221142111509,0)" xlink:href="#aW"/></g><path fill="#fff" d="M234-2c-28 10-62 0-77-18C117 19 8 12 13-65c3-43 29-61 60-76-25-40-17-114 47-108 35 3 59 15 59 50 0 44-40 53-71 69 14 26 32 50 51 72 14-21 24-43 30-72l26 8c-9 33-21 57-38 82 13 13 33 22 57 15v23zM97-151c25-10 52-18 56-48-1-18-13-29-33-29-42 0-39 50-23 77zM42-66c-3 51 71 58 98 28-20-24-41-51-56-80-23 10-40 24-42 52" id="aX"/><use transform="matrix(0.07440405878990376,0,0,0.07440405878990376,0,0)" xlink:href="#aX" id="t"/><path fill="#fff" d="M153-248C145-148 188 4 80 4 36 3 13-21 6-62l32-5c4 25 16 42 43 43 27 0 39-20 39-49v-147H72v-28h81" id="aY"/><path fill="#fff" d="M84 4C-5 8 30-112 23-190h32v120c0 31 7 50 39 49 72-2 45-101 50-169h31l1 190h-30c-1-10 1-25-2-33-11 22-28 36-60 37" id="aZ"/><path fill="#fff" d="M24 0v-261h32V0H24" id="ba"/><path fill="#fff" d="M30 0v-248h187v28H63v79h144v27H63v87h162V0H30" id="bb"/><path fill="#fff" d="M185-189c-5-48-123-54-124 2 14 75 158 14 163 119 3 78-121 87-175 55-17-10-28-26-33-46l33-7c5 56 141 63 141-1 0-78-155-14-162-118-5-82 145-84 179-34 5 7 8 16 11 25" id="bc"/><g id="u"><use transform="matrix(0.07440405878990376,0,0,0.07440405878990376,0,0)" xlink:href="#aY"/><use transform="matrix(0.07440405878990376,0,0,0.07440405878990376,13.392730582182677,0)" xlink:href="#aZ"/><use transform="matrix(0.07440405878990376,0,0,0.07440405878990376,28.27354234016343,0)" xlink:href="#ba"/><use transform="matrix(0.07440405878990376,0,0,0.07440405878990376,34.151462984565825,0)" xlink:href="#bb"/><use transform="matrix(0.07440405878990376,0,0,0.07440405878990376,52.00843709414273,0)" xlink:href="#bc"/></g><g id="v"><use transform="matrix(0.07440405878990376,0,0,0.07440405878990376,0,0)" xlink:href="#aM"/><use transform="matrix(0.07440405878990376,0,0,0.07440405878990376,22.246813578181225,0)" xlink:href="#aN"/><use transform="matrix(0.07440405878990376,0,0,0.07440405878990376,37.12762533616198,0)" xlink:href="#aK"/><use transform="matrix(0.07440405878990376,0,0,0.07440405878990376,52.00843709414273,0)" xlink:href="#aL"/><use transform="matrix(0.07440405878990376,0,0,0.07440405878990376,66.88924885212349,0)" xlink:href="#ba"/></g><path fill="#212529" d="M88-194c31-1 46 15 58 34l-1-101h50l1 261h-48c-2-10 0-23-3-31C134-8 116 4 84 4 32 4 16-41 15-95c0-56 19-97 73-99zm17 164c33 0 40-30 41-66 1-37-9-64-41-64s-38 30-39 65c0 43 13 65 39 65" id="bd"/><path fill="#212529" d="M115-3C79 11 28 4 28-45v-112H4v-33h27l15-45h31v45h36v33H77v99c-1 23 16 31 38 25v30" id="be"/><g id="x"><use transform="matrix(0.11210638787110558,0,0,0.11210638787110558,0,0)" xlink:href="#af"/><use transform="matrix(0.11210638787110558,0,0,0.11210638787110558,13.340660156661563,0)" xlink:href="#ag"/><use transform="matrix(0.11210638787110558,0,0,0.11210638787110558,29.035554458616346,0)" xlink:href="#ah"/><use transform="matrix(0.11210638787110558,0,0,0.11210638787110558,51.45683203283746,0)" xlink:href="#ai"/><use transform="matrix(0.11210638787110558,0,0,0.11210638787110558,87.33087615159124,0)" xlink:href="#aj"/><use transform="matrix(0.11210638787110558,0,0,0.11210638787110558,100.6715363082528,0)" xlink:href="#bd"/><use transform="matrix(0.11210638787110558,0,0,0.11210638787110558,125.22283525202494,0)" xlink:href="#ah"/><use transform="matrix(0.11210638787110558,0,0,0.11210638787110558,147.64411282624604,0)" xlink:href="#be"/><use transform="matrix(0.11210638787110558,0,0,0.11210638787110558,160.9847729829076,0)" xlink:href="#ah"/></g><g id="y"><use transform="matrix(0.07440405878990376,0,0,0.07440405878990376,0,0)" xlink:href="#aw"/><use transform="matrix(0.07440405878990376,0,0,0.07440405878990376,7.440405878990377,0)" xlink:href="#ax"/><use transform="matrix(0.07440405878990376,0,0,0.07440405878990376,22.321217636971127,0)" xlink:href="#av"/><use transform="matrix(0.07440405878990376,0,0,0.07440405878990376,37.202029394951886,0)" xlink:href="#an"/><use transform="matrix(0.07440405878990376,0,0,0.07440405878990376,50.594759977134565,0)" xlink:href="#ay"/><use transform="matrix(0.07440405878990376,0,0,0.07440405878990376,58.03516585612494,0)" xlink:href="#az"/><use transform="matrix(0.07440405878990376,0,0,0.07440405878990376,63.913086500527335,0)" xlink:href="#ao"/><use transform="matrix(0.07440405878990376,0,0,0.07440405878990376,78.79389825850811,0)" xlink:href="#av"/><use transform="matrix(0.07440405878990376,0,0,0.07440405878990376,93.67471001648883,0)" xlink:href="#au"/><use transform="matrix(0.07440405878990376,0,0,0.07440405878990376,108.5555217744696,0)" xlink:href="#at"/><use transform="matrix(0.07440405878990376,0,0,0.07440405878990376,114.43344241887199,0)" xlink:href="#az"/><use transform="matrix(0.07440405878990376,0,0,0.07440405878990376,120.31136306327438,0)" xlink:href="#ay"/><use transform="matrix(0.07440405878990376,0,0,0.07440405878990376,127.75176894226476,0)" xlink:href="#aA"/></g><g id="z"><use transform="matrix(0.07440405878990376,0,0,0.07440405878990376,0,0)" xlink:href="#aw"/><use transform="matrix(0.07440405878990376,0,0,0.07440405878990376,7.440405878990377,0)" xlink:href="#ao"/><use transform="matrix(0.07440405878990376,0,0,0.07440405878990376,22.321217636971127,0)" xlink:href="#ap"/></g><path fill="#212529" d="M177-190C167-65 218 103 67 71c-23-6-38-20-44-43l32-5c15 47 100 32 89-28v-30C133-14 115 1 83 1 29 1 15-40 15-95c0-56 16-97 71-98 29-1 48 16 59 35 1-10 0-23 2-32h30zM94-22c36 0 50-32 50-73 0-42-14-75-50-75-39 0-46 34-46 75s6 73 46 73" id="bf"/><g id="A"><use transform="matrix(0.07440405878990376,0,0,0.07440405878990376,0,0)" xlink:href="#ap"/><use transform="matrix(0.07440405878990376,0,0,0.07440405878990376,8.854082995998548,0)" xlink:href="#aq"/><use transform="matrix(0.07440405878990376,0,0,0.07440405878990376,23.7348947539793,0)" xlink:href="#au"/><use transform="matrix(0.07440405878990376,0,0,0.07440405878990376,38.615706511960056,0)" xlink:href="#as"/><use transform="matrix(0.07440405878990376,0,0,0.07440405878990376,53.49651826994081,0)" xlink:href="#az"/><use transform="matrix(0.07440405878990376,0,0,0.07440405878990376,59.3744389143432,0)" xlink:href="#av"/><use transform="matrix(0.07440405878990376,0,0,0.07440405878990376,74.25525067232395,0)" xlink:href="#bf"/></g><path fill="#212529" d="M115-194c53 0 69 39 70 98 0 66-23 100-70 100C84 3 66-7 56-30L54 0H23l1-261h32v101c10-23 28-34 59-34zm-8 174c40 0 45-34 45-75 0-40-5-75-45-74-42 0-51 32-51 76 0 43 10 73 51 73" id="bg"/><g id="B"><use transform="matrix(0.07440405878990376,0,0,0.07440405878990376,0,0)" xlink:href="#as"/><use transform="matrix(0.07440405878990376,0,0,0.07440405878990376,14.880811757980753,0)" xlink:href="#au"/><use transform="matrix(0.07440405878990376,0,0,0.07440405878990376,29.761623515961507,0)" xlink:href="#ay"/><use transform="matrix(0.07440405878990376,0,0,0.07440405878990376,37.202029394951886,0)" xlink:href="#au"/><use transform="matrix(0.07440405878990376,0,0,0.07440405878990376,52.08284115293263,0)" xlink:href="#bg"/><use transform="matrix(0.07440405878990376,0,0,0.07440405878990376,66.9636529109134,0)" xlink:href="#au"/><use transform="matrix(0.07440405878990376,0,0,0.07440405878990376,81.84446466889416,0)" xlink:href="#aB"/><use transform="matrix(0.07440405878990376,0,0,0.07440405878990376,95.23719525107683,0)" xlink:href="#aq"/></g><g id="C"><use transform="matrix(0.07440405878990376,0,0,0.07440405878990376,0,0)" xlink:href="#au"/><use transform="matrix(0.07440405878990376,0,0,0.07440405878990376,14.880811757980753,0)" xlink:href="#av"/><use transform="matrix(0.07440405878990376,0,0,0.07440405878990376,29.761623515961507,0)" xlink:href="#as"/></g><g id="D"><use transform="matrix(0.07440405878990376,0,0,0.07440405878990376,0,0)" xlink:href="#aB"/><use transform="matrix(0.07440405878990376,0,0,0.07440405878990376,13.392730582182677,0)" xlink:href="#aq"/><use transform="matrix(0.07440405878990376,0,0,0.07440405878990376,28.27354234016343,0)" xlink:href="#av"/><use transform="matrix(0.07440405878990376,0,0,0.07440405878990376,43.15435409814418,0)" xlink:href="#as"/><use transform="matrix(0.07440405878990376,0,0,0.07440405878990376,58.035165856124934,0)" xlink:href="#az"/><use transform="matrix(0.07440405878990376,0,0,0.07440405878990376,63.913086500527335,0)" xlink:href="#av"/><use transform="matrix(0.07440405878990376,0,0,0.07440405878990376,78.79389825850808,0)" xlink:href="#bf"/></g><g id="E"><use transform="matrix(0.07440405878990376,0,0,0.07440405878990376,0,0)" xlink:href="#as"/><use transform="matrix(0.07440405878990376,0,0,0.07440405878990376,14.880811757980753,0)" xlink:href="#au"/><use transform="matrix(0.07440405878990376,0,0,0.07440405878990376,29.761623515961507,0)" xlink:href="#ay"/><use transform="matrix(0.07440405878990376,0,0,0.07440405878990376,37.202029394951886,0)" xlink:href="#au"/></g><g id="F"><use transform="matrix(0.07440405878990376,0,0,0.07440405878990376,0,0)" xlink:href="#ay"/><use transform="matrix(0.07440405878990376,0,0,0.07440405878990376,7.440405878990377,0)" xlink:href="#ao"/></g><g id="G"><use transform="matrix(0.07440405878990376,0,0,0.07440405878990376,0,0)" xlink:href="#an"/><use transform="matrix(0.07440405878990376,0,0,0.07440405878990376,13.392730582182677,0)" xlink:href="#ao"/><use transform="matrix(0.07440405878990376,0,0,0.07440405878990376,28.27354234016343,0)" xlink:href="#ap"/><use transform="matrix(0.07440405878990376,0,0,0.07440405878990376,37.12762533616198,0)" xlink:href="#aq"/></g><g id="H"><use transform="matrix(0.07440405878990376,0,0,0.07440405878990376,0,0)" xlink:href="#ar"/><use transform="matrix(0.07440405878990376,0,0,0.07440405878990376,22.246813578181225,0)" xlink:href="#ao"/><use transform="matrix(0.07440405878990376,0,0,0.07440405878990376,37.12762533616198,0)" xlink:href="#as"/><use transform="matrix(0.07440405878990376,0,0,0.07440405878990376,52.00843709414273,0)" xlink:href="#aq"/><use transform="matrix(0.07440405878990376,0,0,0.07440405878990376,66.88924885212349,0)" xlink:href="#at"/></g><path fill="#212529" d="M25-224v-37h50v37H25zM75 22c2 45-34 59-81 51V38c22 5 31-5 31-27v-201h50V22" id="bh"/><path fill="#212529" d="M85 4C-2 5 27-109 22-190h50c7 57-23 150 33 157 60-5 35-97 40-157h50l1 190h-47c-2-12 1-28-3-38-12 25-28 42-61 42" id="bi"/><path fill="#212529" d="M25 0v-261h50V0H25" id="bj"/><path fill="#212529" d="M137-138c1-29-70-34-71-4 15 46 118 7 119 86 1 83-164 76-172 9l43-7c4 19 20 25 44 25 33 8 57-30 24-41C81-84 22-81 20-136c-2-80 154-74 161-7" id="bk"/><g id="I"><use transform="matrix(0.11160608818485564,0,0,0.11160608818485564,0,0)" xlink:href="#af"/><use transform="matrix(0.11160608818485564,0,0,0.11160608818485564,13.28112449399782,0)" xlink:href="#ag"/><use transform="matrix(0.11160608818485564,0,0,0.11160608818485564,28.90597683987761,0)" xlink:href="#ah"/><use transform="matrix(0.11160608818485564,0,0,0.11160608818485564,51.22719447684874,0)" xlink:href="#ai"/><use transform="matrix(0.11160608818485564,0,0,0.11160608818485564,86.94114269600254,0)" xlink:href="#aj"/><use transform="matrix(0.11160608818485564,0,0,0.11160608818485564,100.22226719000037,0)" xlink:href="#bh"/><use transform="matrix(0.11160608818485564,0,0,0.11160608818485564,111.38287600848594,0)" xlink:href="#bi"/><use transform="matrix(0.11160608818485564,0,0,0.11160608818485564,135.82460932096933,0)" xlink:href="#bj"/><use transform="matrix(0.11160608818485564,0,0,0.11160608818485564,146.9852181394549,0)" xlink:href="#am"/><use transform="matrix(0.11160608818485564,0,0,0.11160608818485564,169.30643577642604,0)" xlink:href="#bk"/></g><path fill="#212529" d="M205 0l-28-72H64L36 0H1l101-248h38L239 0h-34zm-38-99l-47-123c-12 45-31 82-46 123h93" id="bl"/><path fill="#212529" d="M30-248c87 1 191-15 191 75 0 78-77 80-158 76V0H30v-248zm33 125c57 0 124 11 124-50 0-59-68-47-124-48v98" id="bm"/><path fill="#212529" d="M33 0v-248h34V0H33" id="bn"/><g id="J"><use transform="matrix(0.07440405878990376,0,0,0.07440405878990376,0,0)" xlink:href="#bl"/><use transform="matrix(0.07440405878990376,0,0,0.07440405878990376,17.856974109576903,0)" xlink:href="#bm"/><use transform="matrix(0.07440405878990376,0,0,0.07440405878990376,35.71394821915381,0)" xlink:href="#bn"/></g><path fill="#212529" d="M153-248C145-148 188 4 80 4 36 3 13-21 6-62l32-5c4 25 16 42 43 43 27 0 39-20 39-49v-147H72v-28h81" id="bo"/><path fill="#212529" d="M30 0v-248h187v28H63v79h144v27H63v87h162V0H30" id="bp"/><path fill="#212529" d="M185-189c-5-48-123-54-124 2 14 75 158 14 163 119 3 78-121 87-175 55-17-10-28-26-33-46l33-7c5 56 141 63 141-1 0-78-155-14-162-118-5-82 145-84 179-34 5 7 8 16 11 25" id="bq"/><g id="K"><use transform="matrix(0.07440405878990376,0,0,0.07440405878990376,0,0)" xlink:href="#bo"/><use transform="matrix(0.07440405878990376,0,0,0.07440405878990376,13.392730582182677,0)" xlink:href="#ax"/><use transform="matrix(0.07440405878990376,0,0,0.07440405878990376,28.27354234016343,0)" xlink:href="#at"/><use transform="matrix(0.07440405878990376,0,0,0.07440405878990376,34.151462984565825,0)" xlink:href="#bp"/><use transform="matrix(0.07440405878990376,0,0,0.07440405878990376,52.00843709414273,0)" xlink:href="#bq"/></g><path fill="#212529" d="M108 0H70L1-190h34L89-25l56-165h34" id="br"/><g id="L"><use transform="matrix(0.07440405878990376,0,0,0.07440405878990376,0,0)" xlink:href="#aB"/><use transform="matrix(0.07440405878990376,0,0,0.07440405878990376,13.392730582182677,0)" xlink:href="#ao"/><use transform="matrix(0.07440405878990376,0,0,0.07440405878990376,28.27354234016343,0)" xlink:href="#at"/><use transform="matrix(0.07440405878990376,0,0,0.07440405878990376,34.151462984565825,0)" xlink:href="#br"/><use transform="matrix(0.07440405878990376,0,0,0.07440405878990376,47.544193566748504,0)" xlink:href="#aq"/><use transform="matrix(0.07440405878990376,0,0,0.07440405878990376,62.425005324729256,0)" xlink:href="#ap"/></g></defs></g></svg>